<svg width="92" height="88" viewBox="0 0 92 88" fill="none" xmlns="http://www.w3.org/2000/svg">
<path d="M46.4353 0.347099C44.6126 1.09894 43.571 2.05319 42.7899 3.67253C41.9509 5.40754 41.7773 7.57629 42.2691 9.45588C42.4427 10.0631 42.4427 10.1788 42.2691 10.3234C42.0955 10.4969 42.0087 10.4679 41.4879 10.2365C40.62 9.86063 40.186 9.8028 39.3181 9.94738C35.1519 10.6992 32.4613 16.5404 33.2714 22.9889C33.3582 23.5094 33.3582 23.9721 33.3003 24.0299C33.2424 24.0877 32.5191 24.2323 31.7091 24.2901C30.899 24.3769 30.1468 24.5215 30.06 24.6082C29.9732 24.695 29.8574 25.6203 29.7996 26.777C29.7417 27.8758 29.5681 29.5241 29.4235 30.3916C29.3077 31.288 29.192 32.329 29.192 32.676V33.37L30.6097 33.6591L32.0273 33.9772L31.2751 34.3532C30.1757 34.9027 30.0889 35.0182 30.0889 36.4352C30.0889 37.0713 30.2046 38.4882 30.3493 39.5871C30.4939 40.6859 30.6097 41.9873 30.6097 42.4499C30.6097 43.3174 30.6097 43.3752 30.0889 43.8668C29.7996 44.1271 29.5392 44.5319 29.4524 44.7343C29.2788 45.2837 29.5103 48.8116 29.7706 49.5345C30.06 50.2864 30.031 50.5465 29.5681 53.1779C29.2499 55.0575 29.1631 55.8962 29.1341 57.8625C29.0763 60.6385 29.192 60.2916 27.2536 63.5302C25.6624 66.1906 25.402 66.7978 25.1127 68.4461C24.9101 69.6317 24.7655 70.0364 24.1579 71.2509C23.1742 73.2173 23.0585 73.7379 23.4346 75.2705L23.7239 76.4559L22.7981 80.0128C22.0459 82.9623 21.8723 83.743 21.8723 84.6395C21.8723 85.2467 21.9012 85.9407 21.9591 86.2009C22.0459 86.6058 22.1327 86.6925 22.6535 86.866C23.5503 87.1841 24.9391 87.2419 26.646 87.0684C28.0926 86.9239 28.1794 86.8949 28.2662 86.6058C28.3819 86.2298 28.2662 85.5647 27.919 84.1478C27.2536 81.4586 28.1215 77.4969 29.626 76.4559C30.2914 75.9644 30.4071 75.7909 30.9858 74.0559C31.2751 73.2462 31.7959 71.9738 32.143 71.2509C33.011 69.4581 33.1846 68.7352 33.1846 67.405C33.1846 66.017 33.4739 65.1785 34.255 64.2531C34.5733 63.9061 35.123 63.1254 35.528 62.5181C35.9331 61.9398 36.396 61.3326 36.5696 61.2458C36.9457 61.0145 37.2061 60.3204 37.4665 58.8457C37.6979 57.689 38.5659 55.1733 39.1445 53.9877C39.347 53.6118 39.6942 53.0623 39.9835 52.7442C40.4464 52.1948 40.9961 51.1249 40.9961 50.749C40.9961 50.402 41.2565 50.5755 41.459 51.0381C41.5747 51.2984 41.8351 51.7611 42.0376 52.0502C42.3559 52.5129 42.4716 52.5996 43.1081 52.7442C44.3232 53.0044 44.439 53.1491 45.5962 55.4335C47.3321 58.9325 47.39 58.9614 49.097 59.0481C50.1674 59.106 50.1674 59.1059 50.9486 60.118C51.2379 60.4939 51.1511 61.3904 50.7171 62.4025C50.341 63.2989 50.3121 63.5013 50.341 64.658C50.3989 67.2315 50.8907 70.4413 51.5272 72.1763C52.0769 73.68 51.9323 77.2368 51.2668 79.1453C50.9486 80.0706 50.5146 81.9502 50.4278 82.9334L50.341 83.7141L50.8039 83.9165C51.1222 84.0611 51.7297 84.1189 52.8581 84.1189C54.16 84.1189 54.6808 84.1767 55.6934 84.437C57.2846 84.8707 59.3966 85.0153 61.3061 84.8707C63.3602 84.7262 63.2735 84.7551 63.2735 83.772C63.2735 83.0201 63.2445 82.9045 62.9263 82.6153C62.5502 82.2683 61.9137 81.9502 60.8432 81.6032C60.062 81.343 59.2809 80.6779 58.1526 79.2899C57.2846 78.191 57.1978 78.0175 57.4003 77.3813C57.4871 77.1211 57.6318 75.9644 57.7186 74.8655C57.8343 73.6221 58.0079 72.4944 58.1526 72.0317C58.4419 71.1064 58.4708 70.2099 58.2683 68.793C58.1526 67.9833 58.1526 67.5786 58.3261 66.4219C58.5865 64.7447 58.9337 60.9277 58.9337 59.6265C58.9337 58.2674 58.4997 56.648 57.8632 55.7227C57.5739 55.289 57.0821 54.2479 56.7638 53.3515C55.1726 49.1585 53.9285 46.9031 51.7876 44.4162C50.6593 43.086 50.4278 42.5655 50.4278 41.2064C50.4278 40.5992 50.4857 40.0498 50.5435 39.9631C50.6303 39.8763 50.9775 39.9341 51.5561 40.0787L52.453 40.31L52.6845 40.0208C52.8002 39.8473 53.1185 39.298 53.3788 38.8064L53.8417 37.8521L54.0732 34.5266C54.2179 32.676 54.3047 30.8832 54.2468 30.5362C54.1311 29.6976 53.8128 29.206 53.0317 28.6276C52.6845 28.3674 52.3952 28.0782 52.4241 28.0204C52.453 27.9336 52.5398 27.5577 52.6556 27.1529C52.7423 26.748 52.887 26.4299 52.9449 26.4299C53.0027 26.4299 53.6392 26.748 54.3625 27.1529C57.0821 28.6854 58.0368 29.0615 59.9174 29.4374C61.1036 29.6687 61.1325 29.6687 61.6533 29.4084C62.3766 29.0325 64.2571 27.4131 64.6043 26.8637C64.8647 26.4299 65.1251 25.5625 65.4433 23.7986L65.588 22.9889L66.2823 22.7286C66.6585 22.5841 67.0056 22.4684 67.0346 22.4395C67.0635 22.4395 66.9188 21.8612 66.7452 21.1672C66.3113 19.3454 66.2245 18.5646 66.4559 18.102C66.7452 17.5525 68.8573 15.5283 69.2334 15.4416C69.407 15.4126 71.9529 15.3259 74.904 15.297C82.2526 15.1813 81.9343 15.1813 84.1621 15.297C85.2615 15.3548 86.4187 15.3548 86.7659 15.297L87.3735 15.2103V14.4295C87.3735 13.9957 87.3156 13.562 87.2578 13.4463C87.142 13.3018 86.7081 13.2729 84.4225 13.3596C82.5708 13.4175 81.2111 13.3885 80.1984 13.2728C78.5204 13.0993 78.5783 13.1571 78.8097 12.1161C78.9254 11.6824 78.8965 11.6535 78.5783 11.5667C78.4047 11.5378 78.1732 11.48 78.1154 11.4511C77.9128 11.3933 77.7971 10.757 77.7971 9.51363C77.7971 8.44371 77.7971 8.44379 77.4789 8.44379H77.1606V10.092C77.1606 10.9884 77.1028 11.7403 77.0449 11.7403C76.987 11.7403 76.7845 11.5668 76.582 11.3644L76.2059 10.9884H67.7579H59.3098L58.4997 10.5547L57.6896 10.1209L57.5161 9.3113C57.3425 8.55946 57.3425 8.53049 57.1978 8.81966C57.111 8.99316 56.9664 9.48483 56.8796 9.91858L56.7349 10.6992L55.0858 11.2198C52.7713 11.9717 52.8581 11.9717 52.6845 10.6415C52.5977 10.0342 52.5398 9.54255 52.5688 9.51363C52.5977 9.51363 53.0027 9.31121 53.4656 9.07988C54.6229 8.53046 54.7676 8.27026 54.7676 6.82443C54.7676 5.95692 54.6518 5.26295 54.3914 4.10629L54.0153 2.54481L52.9159 1.82188C52.3084 1.44597 51.3247 0.867546 50.7461 0.578377C49.7624 0.086792 49.5888 0.0289612 48.5183 4.57764e-05C47.4189 4.57764e-05 47.1585 0.0579376 46.4353 0.347099ZM62.637 17.1766C62.637 17.8417 62.637 17.8706 62.2319 17.9284C62.0005 17.9574 61.5376 18.0153 61.1614 18.0153H60.496L60.7853 17.408C60.9589 17.0899 61.1036 16.7429 61.1036 16.6561C61.1036 16.5405 61.335 16.4826 61.8558 16.4826H62.608V17.1766H62.637ZM62.1162 18.3332C62.1741 18.3911 60.6407 20.6467 60.496 20.7334C60.3514 20.8491 59.9463 20.2707 59.5413 19.4032C59.0205 18.3044 59.2809 18.1598 61.1904 18.2465C61.6822 18.2755 62.0873 18.3043 62.1162 18.3332Z" fill="white"/>
<path d="M3.26927 32.8783C2.2856 33.1385 1.56231 33.6012 0.983675 34.3241C0 35.5675 0 35.3939 0 43.6352V50.9802L0.289316 51.7319C0.694359 52.744 1.67803 53.7272 2.69064 54.1321L3.44286 54.4502H10.9072H18.3716L19.0659 54.1321C20.3679 53.5248 21.149 52.6284 21.5541 51.3271C21.9302 50.0258 22.9428 50.1704 13.0192 50.1704H4.28188V43.6064V37.0422H13.0192C22.9428 37.0422 21.9591 37.1868 21.5541 35.8856C21.1779 34.6132 20.3679 33.6879 19.1527 33.1095L18.4005 32.7626L11.1965 32.7337C5.1209 32.7048 3.8479 32.7337 3.26927 32.8783Z" fill="white"/>
<path d="M71.1717 32.8204C69.9855 33.1095 68.7126 34.1217 68.0471 35.3651L67.7 36.0591V39.1243C67.7 42.1606 67.7 42.1894 68.0471 42.9123C68.4811 43.8376 69.3491 44.763 70.217 45.2546L70.8824 45.6306L79.0701 45.6883L87.2577 45.7462L87.2867 47.9439L87.3156 50.1415H77.4788H67.6421L67.7289 50.4307C67.7578 50.6042 68.0182 51.1247 68.2497 51.6452C69.0019 53.1778 70.2459 54.0742 72.0686 54.3634C72.6473 54.4501 75.5694 54.479 80.4877 54.479L88.0099 54.4502L88.7911 54.1031C89.7748 53.6405 90.7584 52.6573 91.2214 51.6452C91.5685 50.8934 91.5685 50.7777 91.6264 48.4644C91.6553 46.9318 91.6264 45.7173 91.5107 45.1968C91.2503 43.6642 90.122 42.305 88.7043 41.7556C88.0967 41.5243 87.6049 41.5244 80.0248 41.5244H71.9818V39.2977V37.0712H81.7607H91.5685L91.4817 36.6374C91.3371 35.9145 90.7584 34.9024 90.122 34.2373C89.3697 33.4854 88.3571 32.9939 87.2867 32.8204C86.2451 32.6469 71.8082 32.6758 71.1717 32.8204Z" fill="white"/>
</svg>
