<svg width="82" height="101" viewBox="0 0 82 101" fill="none" xmlns="http://www.w3.org/2000/svg">
<path d="M54.9344 19.4843L52.4447 28.3119H44.2527C41.8433 28.3914 38.3898 28.789 36.6229 31.8111C36.0607 32.8449 35.4985 35.3898 38.1489 37.0599C36.7032 33.7197 38.3898 31.0953 42.8874 30.9363H51.7218L50.0353 38.0142H46.5818L45.2165 43.9788C41.1205 44.456 36.7835 43.7402 33.1694 41.6725C30.3585 40.0024 28.0294 37.5371 27.2263 34.515C26.2625 31.0953 27.3066 27.5166 29.9569 24.6536C32.8482 21.552 37.667 19.4048 43.2086 19.4048L54.9344 19.4843Z" fill="white"/>
<path d="M29.3144 79.6866C29.3144 78.9709 29.3947 78.2551 29.6357 77.4599C29.8766 76.6646 30.1978 76.0284 30.5994 75.3921C31.001 74.7559 31.5632 74.2787 32.2057 73.8811C32.8482 73.4835 33.6513 73.3244 34.5348 73.3244C35.1773 73.3244 35.7395 73.4039 36.2214 73.6425C36.7032 73.8811 37.0245 74.1197 37.3457 74.5173C37.667 74.8354 37.8276 75.3126 37.9882 75.7898C38.1489 76.2669 38.1489 76.7441 38.1489 77.3008C38.1489 78.0165 38.0686 78.7323 37.8276 79.5276C37.5867 80.2433 37.2654 80.9591 36.8639 81.5953C36.4623 82.2315 35.9001 82.7087 35.2576 83.1063C34.6151 83.5039 33.8923 83.663 33.0088 83.663C32.3663 83.663 31.8041 83.5835 31.3222 83.3449C30.8404 83.1063 30.5191 82.8677 30.1978 82.4701C29.8766 82.0724 29.716 81.6748 29.5553 81.1976C29.3144 80.7205 29.3144 80.2433 29.3144 79.6866ZM25.7806 79.6866C25.7806 81.8339 26.4231 83.5039 27.6278 84.6969C28.9128 85.8898 30.5994 86.4465 32.9285 86.4465C34.3741 86.4465 35.5788 86.2079 36.7032 85.6512C37.8276 85.174 38.7111 84.4583 39.4339 83.5835C40.1567 82.7087 40.7189 81.6748 41.1205 80.5614C41.522 79.448 41.6827 78.2551 41.6827 76.9827C41.6827 75.9488 41.522 74.9945 41.2008 74.1992C40.8795 73.4039 40.3977 72.6882 39.7551 72.1315C39.1126 71.5748 38.3898 71.1772 37.5064 70.8591C36.6229 70.6205 35.6592 70.4614 34.5348 70.4614C33.1694 70.4614 31.9647 70.7 30.8404 71.1772C29.716 71.6543 28.8325 72.3701 28.1097 73.1654C27.3869 74.0402 26.7444 74.9945 26.3428 76.1079C25.9412 77.3008 25.7806 78.4937 25.7806 79.6866ZM46.3408 76.9827L47.144 73.4039H50.8384C51.4006 73.4039 51.8825 73.4835 52.2037 73.7221C52.525 73.9606 52.6856 74.3583 52.6856 74.915C52.6856 75.5512 52.4447 76.1079 51.9628 76.426C51.4809 76.7441 50.9187 76.9032 50.2762 76.9032H46.3408V76.9827ZM44.8952 83.5039L45.859 79.289H49.3124C49.6337 79.289 49.9549 79.289 50.2762 79.3685C50.5975 79.3685 50.9187 79.448 51.1596 79.6071C51.4006 79.7661 51.6415 79.9252 51.8022 80.1638C51.9628 80.4024 52.0431 80.7205 52.0431 81.1181C52.0431 81.9134 51.8022 82.5496 51.24 82.9473C50.7581 83.3449 50.0353 83.5835 49.2321 83.5835H44.8952V83.5039ZM44.333 70.8591L40.9598 86.0488H49.5534C50.3565 86.0488 51.1596 85.9693 51.8825 85.7307C52.6053 85.4921 53.2478 85.174 53.81 84.7764C54.3722 84.3787 54.8541 83.822 55.1753 83.1858C55.4966 82.5496 55.6572 81.8339 55.6572 81.0386C55.6572 80.3228 55.4163 79.6866 55.0147 79.0504C54.6131 78.4937 54.0509 78.0961 53.2478 77.937V77.937C53.7297 77.8575 54.1312 77.778 54.5328 77.5394C54.9344 77.3008 55.2556 77.0622 55.4966 76.7441C55.7375 76.426 55.9785 76.0284 56.0588 75.6307C56.2194 75.2331 56.2997 74.8354 56.2997 74.3583C56.2997 73.6425 56.1391 73.0063 55.9785 72.6087C55.7375 72.1315 55.4163 71.8134 54.9344 71.4953C54.4525 71.2567 53.9706 71.0181 53.3281 70.9386C52.6856 70.8591 51.9628 70.7795 51.1596 70.7795H44.333V70.8591ZM60.9579 80.1638L64.4114 74.1197H64.4917L65.2948 80.1638H60.9579ZM63.3673 70.8591L53.81 86.0488H57.5044L59.5122 82.6291H65.5357L66.0176 86.0488H69.5514L66.9011 70.7795H63.3673V70.8591ZM73.4065 70.8591L70.0333 86.1284H81.3575L82 83.3449H74.2899L77.0206 70.9386H73.4065V70.8591ZM11.2439 84.5378V86.1284H13.4927L15.3399 77.8575H8.51322L7.95103 80.3228H11.6454C11.4848 80.8 11.3242 81.2772 11.0833 81.6748C10.8423 82.0724 10.5211 82.3906 10.1998 82.7087C9.87855 83.0268 9.39667 83.1858 8.91479 83.3449C8.43291 83.5039 7.87071 83.5835 7.14789 83.5835C6.50539 83.5835 5.94319 83.5039 5.46131 83.2654C4.97943 83.0268 4.65818 82.7882 4.33692 82.3906C4.01567 81.9929 3.85504 81.5953 3.69442 81.1181C3.53379 80.6409 3.45348 80.1638 3.45348 79.6071C3.45348 78.8913 3.53379 78.1756 3.77473 77.3803C4.01567 76.585 4.33692 75.9488 4.73849 75.3126C5.14006 74.6764 5.70225 74.1992 6.34476 73.8016C6.98727 73.4039 7.7904 73.2449 8.67385 73.2449C9.63761 73.2449 10.4407 73.4835 11.0029 73.8811C11.5651 74.2787 11.8864 74.915 11.9667 75.8693H15.5005C15.5005 74.915 15.3399 74.1197 14.9383 73.4835C14.617 72.7677 14.0548 72.211 13.4927 71.8134C12.8501 71.3362 12.1273 71.0181 11.3242 70.8591C10.5211 70.6205 9.63761 70.541 8.67385 70.541C7.30852 70.541 6.10382 70.7795 4.97943 71.2567C4.01567 71.7339 3.13222 72.3701 2.32909 73.2449C1.60627 74.1197 0.963761 75.074 0.562194 76.1874C0.24094 77.3008 0 78.4937 0 79.6866C0 81.8339 0.642507 83.5039 1.84721 84.6969C3.13222 85.8898 4.8188 86.4465 7.14789 86.4465C7.87071 86.4465 8.59354 86.2874 9.31636 85.9693C10.0392 85.7307 10.6817 85.174 11.2439 84.5378ZM17.8296 70.8591L14.4564 86.0488H25.7806L26.4231 83.2654H18.713L21.4437 70.8591H17.8296V70.8591Z" fill="white"/>
<path d="M17.0265 90.7411L14.7777 100.762H15.7414L16.7855 95.9899H21.9256L22.0862 95.1946H17.0265L17.8296 91.6159H23.5318L23.6925 90.8206H17.0265V90.7411ZM24.7365 90.7411L22.4878 100.762H23.4515L25.7003 90.7411H24.7365V90.7411ZM26.5034 90.7411L26.3428 91.5364H29.9569L27.8688 100.682H28.8325L30.9207 91.5364H34.5348L34.6954 90.7411H26.5034ZM35.4182 90.7411L33.1695 100.762H34.1332L36.0607 91.8545L40.237 100.762H41.3614L43.6905 90.7411H42.7268L40.7992 99.6482L36.6229 90.7411H35.4182ZM44.4936 90.7411L42.2449 100.762H49.3928L49.5534 99.9663H43.3693L44.2527 95.9899H49.8746L50.0353 95.1946H44.4133L45.2165 91.6159H51.4006L51.5612 90.8206H44.4936V90.7411ZM57.8257 93.6836H58.7894C58.7894 93.1269 58.7091 92.6497 58.5485 92.2521C58.3879 91.8545 58.0666 91.5364 57.7454 91.2978C57.4241 91.0592 57.0225 90.9001 56.5407 90.7411C56.0588 90.6616 55.5769 90.582 55.0147 90.582C54.5328 90.582 54.0509 90.6616 53.6494 90.7411C53.1675 90.8206 52.7659 91.0592 52.4447 91.2182C52.1234 91.4568 51.8022 91.7749 51.6415 92.0931C51.4006 92.4112 51.3203 92.8883 51.3203 93.3655C51.3203 94.0017 51.4809 94.4789 51.8825 94.8765C52.284 95.2742 52.7659 95.5127 53.4084 95.6718L54.4525 95.9899C54.7738 96.0694 55.0147 96.149 55.336 96.2285C55.6572 96.308 55.8982 96.3875 56.1391 96.5466C56.38 96.7056 56.621 96.8647 56.7816 97.1033C56.9422 97.3419 57.0225 97.5804 57.0225 97.9781C57.0225 98.3757 56.9422 98.6938 56.7816 98.9324C56.621 99.171 56.38 99.4096 56.0588 99.5686C55.7375 99.7277 55.4163 99.8867 55.095 99.9663C54.7738 100.046 54.3722 100.125 54.0509 100.125C53.5691 100.125 53.1675 100.046 52.7659 99.9663C52.3644 99.8867 52.0431 99.7277 51.8022 99.4891C51.5612 99.2505 51.3203 99.0119 51.1597 98.6938C50.999 98.3757 50.999 97.9781 50.999 97.4214H50.0353C50.0353 98.0576 50.1156 98.5348 50.2762 99.0119C50.4368 99.4891 50.7581 99.8072 51.0793 100.125C51.4006 100.443 51.8825 100.602 52.3644 100.762C52.8462 100.921 53.4084 101 53.9706 101C54.8541 101 55.4966 100.921 56.0588 100.682C56.621 100.443 57.0225 100.205 57.2635 99.8867C57.5847 99.5686 57.7454 99.2505 57.8257 98.8529C57.906 98.5348 57.9863 98.2167 57.9863 97.9781C57.9863 97.5804 57.906 97.1828 57.7454 96.9442C57.5847 96.6261 57.3438 96.4671 57.1029 96.2285C56.8619 96.0694 56.5407 95.9104 56.2194 95.7513C55.8982 95.5923 55.4966 95.5127 55.1753 95.4332L54.0509 95.1151C53.81 95.0356 53.5691 94.956 53.4084 94.8765C53.1675 94.797 53.0069 94.7175 52.8462 94.5584C52.6856 94.3994 52.525 94.3198 52.4447 94.0812C52.3644 93.9222 52.284 93.6836 52.284 93.445C52.284 93.1269 52.3644 92.8088 52.525 92.5702C52.6856 92.3316 52.9266 92.0931 53.1675 91.934C53.4084 91.7749 53.7297 91.6159 54.0509 91.5364C54.3722 91.4568 54.6935 91.4568 55.0147 91.4568C55.4966 91.4568 55.8982 91.4568 56.2194 91.5364C56.5407 91.6159 56.8619 91.7749 57.1029 91.934C57.3438 92.0931 57.5044 92.3316 57.6651 92.6497C57.7454 92.8883 57.8257 93.2064 57.8257 93.6836ZM66.1783 93.6836H67.142C67.142 93.1269 67.0617 92.6497 66.9011 92.2521C66.7405 91.8545 66.4192 91.5364 66.098 91.2978C65.7767 91.0592 65.3751 90.9001 64.8933 90.7411C64.4114 90.6616 63.9295 90.582 63.3673 90.582C62.8854 90.582 62.4035 90.6616 62.002 90.7411C61.5201 90.8206 61.1988 91.0592 60.7973 91.2182C60.476 91.4568 60.1548 91.7749 59.9941 92.0931C59.7532 92.4112 59.6729 92.8883 59.6729 93.3655C59.6729 94.0017 59.8335 94.4789 60.2351 94.8765C60.6366 95.2742 61.1185 95.5127 61.761 95.6718L62.8051 95.9899C63.1264 96.0694 63.3673 96.149 63.6886 96.2285C64.0098 96.308 64.2508 96.3875 64.4917 96.5466C64.7326 96.7056 64.9736 96.8647 65.1342 97.1033C65.2948 97.3419 65.3751 97.5804 65.3751 97.9781C65.3751 98.3757 65.2948 98.6938 65.1342 98.9324C64.9736 99.171 64.7326 99.4096 64.4114 99.5686C64.0901 99.7277 63.7689 99.8867 63.4476 99.9663C63.1264 100.046 62.7248 100.125 62.4035 100.125C61.9217 100.125 61.5201 100.046 61.1185 99.9663C60.717 99.8867 60.3957 99.7277 60.1548 99.4891C59.9138 99.2505 59.6729 99.0119 59.5926 98.6938C59.4319 98.3757 59.4319 97.9781 59.4319 97.4214H58.4682C58.4682 98.0576 58.5485 98.5348 58.7091 99.0119C58.8697 99.4891 59.191 99.8072 59.5123 100.125C59.8335 100.443 60.3154 100.602 60.7973 100.762C61.2791 100.921 61.8413 101 62.4035 101C63.287 101 63.9295 100.921 64.4917 100.682C65.0539 100.443 65.4555 100.205 65.6964 99.8867C66.0176 99.5686 66.1783 99.2505 66.2586 98.8529C66.3389 98.5348 66.4192 98.2167 66.4192 97.9781C66.4192 97.5804 66.3389 97.1828 66.1783 96.9442C66.0176 96.6261 65.7767 96.4671 65.5358 96.2285C65.2948 96.0694 64.9736 95.9104 64.6523 95.7513C64.3311 95.5923 63.9295 95.5127 63.6082 95.4332L62.4839 95.1151C62.2429 95.0356 62.002 94.956 61.8413 94.8765C61.6004 94.797 61.4398 94.7175 61.2792 94.5584C61.1185 94.3994 60.9579 94.3198 60.8776 94.0812C60.7973 93.9222 60.717 93.6836 60.717 93.445C60.717 93.1269 60.7973 92.8088 60.9579 92.5702C61.1185 92.3316 61.3595 92.0931 61.6004 91.934C61.8413 91.7749 62.1626 91.6159 62.4839 91.5364C62.8051 91.4568 63.1264 91.4568 63.4476 91.4568C63.9295 91.4568 64.3311 91.4568 64.6523 91.5364C64.9736 91.6159 65.2948 91.7749 65.5358 91.934C65.7767 92.0931 65.9373 92.3316 66.098 92.6497C66.098 92.8883 66.1783 93.2064 66.1783 93.6836Z" fill="white"/>
<path d="M40.9598 63.463L17.5083 49.7047V13.7583L40.9598 0L64.4917 13.7583V49.7842L40.9598 63.463ZM18.6327 49.0685L40.9598 62.111L63.287 49.0685V14.3945L40.9598 1.35197L18.6327 14.3945V49.0685Z" fill="white"/>
</svg>
