<svg width="161" height="76" viewBox="0 0 161 76" fill="none" xmlns="http://www.w3.org/2000/svg">
<g clip-path="url(#clip0_927_440)">
<path d="M17.1388 10.7744V21.5489H18.3611H19.5834L19.5888 20.567L19.5969 19.5877L19.8655 19.9294C20.2148 20.3706 20.7897 20.949 21.1147 21.1777C21.9287 21.7534 22.9791 22.0601 24.1478 22.0601C26.2486 22.0574 27.9196 21.2395 29.1016 19.6334C30.0714 18.3125 30.6329 16.7979 30.8559 14.877C30.9123 14.3766 30.9365 12.9965 30.8962 12.4154C30.6974 9.57183 29.741 7.66173 27.9115 6.44842C27.1781 5.96417 26.2808 5.64403 25.2788 5.50952C24.8785 5.45571 23.8254 5.46378 23.4654 5.52297C22.458 5.68977 21.6332 6.03681 20.8461 6.62598C20.5721 6.83313 20.0133 7.37657 19.8387 7.60524C19.7822 7.68326 19.7231 7.74782 19.7124 7.74782C19.7017 7.74782 19.6909 6.00453 19.6909 3.87383V-0.000154495H18.4148H17.1388V10.7744ZM24.6394 7.86889C25.4937 7.98188 26.1089 8.27781 26.6784 8.84814C27.3366 9.50995 27.8094 10.4758 28.0566 11.6622C28.1909 12.3186 28.2204 12.6441 28.2204 13.5723C28.2204 14.4843 28.1963 14.8179 28.0834 15.4958C27.839 16.9512 27.256 18.1672 26.4742 18.8586C25.7247 19.5204 24.6609 19.8137 23.4493 19.6926C21.7084 19.5151 20.5748 18.5546 19.9837 16.7548C19.6775 15.8267 19.5324 14.6188 19.5646 13.2763C19.6157 11.1914 20.0831 9.88659 21.1067 8.97728C22.1007 8.08949 23.3526 7.6994 24.6394 7.86889Z" fill="white"/>
<path d="M62.4326 1.3317V2.66339H64.0311H65.6295V24.0645V45.4656H70.0488H74.468V44.1339V42.8022H71.3786H68.2891V21.4011V1.90735e-05H65.3609H62.4326V1.3317Z" fill="white"/>
<path d="M89.4316 3.68547V5.86459H88.3705H87.3093V6.95414V8.0437H88.3705H89.4316V13.2547C89.4316 16.5207 89.4424 18.603 89.4585 18.8263C89.5203 19.6441 89.7191 20.279 90.079 20.8117C90.4014 21.2906 90.9253 21.5838 91.7151 21.7291C92.0375 21.7883 93.1658 21.7963 93.5956 21.7425C93.8938 21.7049 94.3156 21.6269 94.501 21.5784L94.6138 21.5461L94.6165 20.4969V19.4477L94.3962 19.4693C94.0523 19.5015 93.2276 19.4935 93.0234 19.4558C92.5533 19.367 92.2524 19.0953 92.1503 18.6703C92.11 18.5035 92.1127 18.837 92.1154 13.1471L92.1181 8.0437H93.3673H94.6165V6.95414V5.86459H93.3673C92.3867 5.86459 92.1181 5.85652 92.1181 5.82961C92.1181 5.81347 92.1181 4.83153 92.1181 3.6505V1.50636H90.7748H89.4316V3.68547Z" fill="white"/>
<path d="M54.6822 5.4233C53.9541 5.49325 53.4786 5.57665 53.0058 5.71923C51.9151 6.05283 51.0232 6.59895 50.22 7.43293C48.9197 8.77807 48.1944 10.5321 47.9741 12.8592C47.9257 13.3973 47.9311 14.7881 47.9875 15.3073C48.189 17.1502 48.7263 18.5653 49.6639 19.7328C50.9937 21.3873 52.8312 22.1729 55.2195 22.1056C55.8239 22.0868 56.1087 22.0626 56.6137 21.9765C58.317 21.6913 59.6602 20.9085 60.5978 19.6548C61.6213 18.2882 62.215 16.6094 62.3923 14.5863C62.438 14.0591 62.4461 12.8296 62.4031 12.3292C62.2741 10.75 61.8685 9.45063 61.178 8.4095C60.63 7.58359 59.7569 6.79534 58.8086 6.27074C58.1047 5.88065 57.2209 5.59279 56.3612 5.47442C56.0684 5.43406 54.9293 5.39909 54.6822 5.4233ZM55.7568 7.72079C57.922 7.92525 59.2169 9.33495 59.5823 11.8773C59.7757 13.2143 59.6978 14.7774 59.3808 16.0472C59.225 16.6713 58.9751 17.3627 58.7334 17.8496C58.0591 19.1948 56.8878 19.8539 55.163 19.8539C53.6237 19.8539 52.4632 19.2889 51.7378 18.1886C51.0554 17.1556 50.7008 15.8831 50.6471 14.285C50.6068 12.9803 50.8163 11.6405 51.2301 10.5805C51.5336 9.80037 51.8909 9.20851 52.3181 8.78345C52.9628 8.13778 53.6936 7.81495 54.7493 7.71272C54.9642 7.6912 55.4801 7.69658 55.7568 7.72079Z" fill="white"/>
<path d="M38.6198 5.48802C36.39 5.6871 34.7244 6.67712 33.9292 8.27245C33.6552 8.82396 33.5236 9.31896 33.4671 10.0157C33.3355 11.6514 34.042 12.8405 35.6136 13.6234C36.3416 13.9893 37.0697 14.2179 39.0738 14.7156C41.2444 15.2564 42.0128 15.4797 42.4587 15.703C43.2163 16.085 43.5655 16.7764 43.4393 17.6507C43.3318 18.3932 42.9369 18.9125 42.1793 19.2999C41.3976 19.7007 40.4949 19.881 39.4365 19.846C37.7305 19.7895 36.6022 19.2837 36.0246 18.3179C35.8124 17.9655 35.6378 17.4113 35.5653 16.8571L35.533 16.5988H34.2704H33.0078L33.0266 16.8463C33.1743 18.8533 34.2301 20.6208 35.7345 21.3768C36.7795 21.9014 38.1604 22.1462 39.8663 22.1058C41.3223 22.0708 42.3942 21.8449 43.3345 21.3714C44.3016 20.8871 45.1747 19.9913 45.6234 19.0201C46.2063 17.761 46.209 16.1415 45.6341 15.025C45.4111 14.5946 44.9813 14.1157 44.581 13.8494C43.8422 13.3624 42.6468 12.9589 40.1967 12.3724C38.3404 11.9285 37.9616 11.8209 37.4592 11.5842C36.7527 11.2506 36.3014 10.7663 36.1697 10.2068C36.1052 9.92428 36.1267 9.43734 36.2181 9.17907C36.4787 8.44732 37.2067 7.94962 38.2598 7.7882C38.8589 7.69673 39.826 7.71018 40.4492 7.8151C41.1853 7.94155 41.7549 8.17829 42.174 8.52803C42.6092 8.8939 42.9396 9.5584 43.0497 10.2821L43.0659 10.3843H44.3043H45.5428L45.5267 10.04C45.4568 8.67599 44.6777 7.32278 43.493 6.51301C42.7247 5.98841 41.8059 5.67096 40.6212 5.52568C40.2236 5.47726 39.0066 5.45305 38.6198 5.48802Z" fill="white"/>
<path d="M6.07323 5.51748C5.21625 5.58743 4.29747 5.82148 3.54795 6.15776C2.44113 6.65277 1.76145 7.26346 1.33162 8.15124C1.03342 8.76462 0.805068 9.77347 0.805068 10.4837V10.6801H2.02472H3.24707L3.26319 10.551C3.34109 9.98331 3.53452 9.38069 3.74944 9.0471C4.37538 8.06516 5.64877 7.62933 7.48362 7.77461C8.8376 7.88222 9.77787 8.31266 10.1889 9.01482C10.4737 9.49907 10.5731 10.2954 10.4361 10.9626C10.3447 11.3957 10.1002 11.7132 9.71877 11.888C9.59519 11.9445 9.43937 12.0037 9.37221 12.0198C9.30505 12.036 8.18748 12.1839 6.88723 12.3481C5.58967 12.5122 4.38613 12.6736 4.21688 12.7112C3.08051 12.9561 2.18323 13.373 1.42296 14.0106C0.630447 14.6751 0.171061 15.5737 0.025992 16.7332C-0.014305 17.0614 -0.00624557 17.855 0.0394244 18.1778C0.136137 18.8666 0.3618 19.4503 0.754025 20.0422C0.995807 20.4081 1.58683 20.9919 1.96831 21.2474C2.88439 21.8581 3.90256 22.1191 5.18401 22.0787C6.33382 22.0384 7.26333 21.8043 8.25464 21.3012C9.13043 20.8547 9.94712 20.2359 10.4011 19.6736C10.4763 19.5795 10.5435 19.5068 10.5462 19.5122C10.5489 19.5149 10.5784 19.6467 10.6107 19.8001C10.6913 20.209 10.7826 20.4888 10.925 20.7713C11.0942 21.1102 11.4327 21.4573 11.7524 21.6214C12.2011 21.8501 12.5718 21.9146 13.3052 21.8904C13.8103 21.8716 14.1756 21.8151 14.6081 21.6859L14.8016 21.6268V20.6556V19.6844L14.6968 19.7032C14.1729 19.7866 13.7162 19.7866 13.4771 19.7059C13.3213 19.6494 13.1897 19.5068 13.1198 19.3078C13.0715 19.1732 13.0688 18.993 13.0527 14.1909C13.0392 9.72774 13.0339 9.19238 12.9936 9.00406C12.8243 8.1916 12.553 7.64817 12.0667 7.14509C11.0298 6.07705 9.12774 5.47444 6.83619 5.49058C6.57023 5.49327 6.22636 5.50672 6.07323 5.51748ZM10.4146 14.963C10.4038 16.2005 10.3984 16.3377 10.3474 16.5745C10.1835 17.3439 9.87995 17.9088 9.35341 18.4227C8.70059 19.0603 7.56422 19.5768 6.40635 19.7651C5.98995 19.8324 5.17595 19.8324 4.86701 19.7651C4.41837 19.6656 4.10136 19.5337 3.73332 19.2862C3.02946 18.8154 2.70977 18.1536 2.74738 17.2443C2.76619 16.7951 2.82798 16.5422 3.00797 16.179C3.29005 15.6033 3.79779 15.2051 4.57955 14.9415C5.12759 14.7585 5.52788 14.6859 7.11827 14.4868C7.65825 14.4196 8.27613 14.3281 8.49374 14.2823C9.20565 14.1398 9.83428 13.9299 10.2211 13.7093C10.3098 13.6582 10.3931 13.6152 10.4038 13.6152C10.4172 13.6125 10.4226 14.2205 10.4146 14.963Z" fill="white"/>
<path d="M103.777 5.54168C101.467 5.76228 99.6293 6.92986 98.4097 8.94756C97.5312 10.4084 97.0879 12.3077 97.1524 14.3388C97.2115 16.222 97.5795 17.6317 98.3318 18.8854C98.6783 19.4611 99.3311 20.2036 99.8819 20.6448C100.836 21.4089 101.924 21.8797 103.119 22.0518C103.544 22.111 104.728 22.1191 105.174 22.0653C106.62 21.8904 107.691 21.495 108.634 20.7901C108.97 20.5426 109.623 19.8862 109.87 19.5526C110.459 18.7616 110.977 17.6936 111.122 16.9699C111.195 16.6094 111.361 16.6498 109.876 16.6579L108.583 16.6659L108.503 16.9081C108.39 17.2551 108.081 17.8604 107.869 18.159C107.318 18.9284 106.515 19.4719 105.588 19.7032C105.126 19.8189 104.924 19.8404 104.301 19.8377C103.624 19.8351 103.27 19.7866 102.797 19.6279C101.867 19.3158 101.247 18.7724 100.744 17.8308C100.317 17.0318 100.048 15.988 99.9974 14.9226L99.9813 14.5541H105.695H111.412L111.393 13.9003C111.348 12.0548 111.235 11.1321 110.934 10.1098C110.432 8.38798 109.403 7.14777 107.807 6.33531C107.039 5.94522 106.303 5.70579 105.497 5.58204C105.161 5.53092 104.148 5.50671 103.777 5.54168ZM104.922 7.8311C106.072 7.9414 106.958 8.39336 107.597 9.19506C108.129 9.86494 108.503 10.8899 108.637 12.0521C108.653 12.192 108.672 12.34 108.68 12.3803L108.694 12.4557H104.368H100.043L100.059 12.2593C100.142 11.2155 100.398 10.4353 100.905 9.66855C101.161 9.28384 101.719 8.71888 102.082 8.47676C102.633 8.11088 103.27 7.8849 103.938 7.82034C104.153 7.79881 104.648 7.80419 104.922 7.8311Z" fill="white"/>
<path d="M72.2463 11.6675C72.2543 17.9143 72.249 17.6076 72.3887 18.3071C72.8051 20.4136 74.0838 21.5892 76.3082 21.9147C76.7676 21.9847 77.8798 21.9847 78.3069 21.9174C79.9108 21.6645 81.2191 20.8171 82.0599 19.4854L82.2104 19.2487L82.1969 20.3974L82.1862 21.5489H83.43H84.6766V13.7067V5.86459H83.3602H82.0438V9.91882C82.0438 12.2163 82.0304 14.1802 82.017 14.4465C81.939 15.824 81.7349 16.7521 81.3292 17.5753C80.7731 18.6999 79.9081 19.3509 78.6723 19.5742C78.3338 19.6361 77.4822 19.6441 77.1813 19.5876C75.8247 19.3401 75.0912 18.4335 74.9542 16.8274C74.9354 16.6176 74.9247 14.6322 74.9247 11.1832V5.86459H73.5815H72.2382L72.2463 11.6675Z" fill="white"/>
<path d="M77.1007 25.4631V26.9562H78.4305H79.7603V25.4631V23.97H78.4305H77.1007V25.4631Z" fill="white"/>
<path d="M103.724 29.4582C101.413 29.6788 99.5757 30.8464 98.3561 32.8641C97.4722 34.3303 97.0289 36.2377 97.0988 38.2823C97.1633 40.1574 97.5286 41.5536 98.2781 42.8019C98.6247 43.3776 99.2775 44.1201 99.8282 44.5613C100.782 45.3254 101.87 45.7962 103.065 45.9683C103.49 46.0275 104.675 46.0356 105.121 45.9818C106.569 45.8042 107.635 45.4115 108.581 44.7066C108.916 44.4591 109.569 43.8027 109.816 43.4691C110.405 42.6782 110.923 41.6101 111.068 40.8864C111.141 40.5259 111.307 40.5663 109.822 40.5744L108.53 40.5824L108.449 40.8246C108.137 41.7635 107.541 42.5652 106.773 43.0817C106.058 43.5632 105.102 43.8027 104.059 43.7623C102.628 43.7058 101.628 43.1947 100.938 42.167C100.371 41.3276 100.006 40.0982 99.9437 38.8392L99.9276 38.4706H105.642H111.358L111.34 37.8169C111.332 37.459 111.313 36.9425 111.297 36.6681C111.213 35.097 110.939 33.8998 110.437 32.8991C109.833 31.6911 108.957 30.8491 107.632 30.198C106.856 29.816 106.257 29.625 105.443 29.4986C105.107 29.4474 104.1 29.4232 103.724 29.4582ZM104.868 31.7476C106.018 31.8579 106.904 32.3099 107.544 33.1116C108.076 33.7815 108.449 34.8064 108.583 35.9686C108.599 36.1085 108.618 36.2565 108.626 36.2969L108.64 36.3722H104.315H99.9894L100.006 36.1758C100.086 35.1374 100.341 34.3545 100.852 33.5851C101.107 33.2004 101.666 32.6354 102.028 32.3933C102.579 32.0274 103.216 31.8014 103.885 31.7369C104.1 31.7153 104.594 31.7207 104.868 31.7476Z" fill="white"/>
<path d="M81.9765 29.827C81.998 29.8862 84.3111 36.1653 86.275 41.4974L87.7283 45.4521L89.1388 45.4575L90.5465 45.4656L93.4855 37.6557C95.1028 33.362 96.4299 29.8324 96.4353 29.8135C96.4461 29.7866 96.1559 29.7813 95.0061 29.7866L93.5634 29.7947L91.3847 36.1626C90.1838 39.6653 89.1952 42.517 89.1871 42.4982C89.171 42.4659 85.2568 30.5238 85.1009 30.0288L85.023 29.7813H83.4917C82.041 29.7813 81.9577 29.7839 81.9765 29.827Z" fill="white"/>
<path d="M77.1007 37.6638V45.4656H78.4305H79.7603V37.6638V29.862H78.4305H77.1007V37.6638Z" fill="white"/>
<path d="M125.027 49.3797V50.8728H126.357H127.687V49.3797V47.8866H126.357H125.027V49.3797Z" fill="white"/>
<path d="M88.7895 53.3502C87.9325 53.4202 87.0137 53.6542 86.2642 53.9905C85.1573 54.4855 84.4777 55.0962 84.0478 55.984C83.7496 56.5974 83.5213 57.6062 83.5213 58.3165V58.5128H84.7409H85.9633L85.9794 58.3837C85.9902 58.3138 86.0278 58.1228 86.0627 57.956C86.2158 57.2646 86.4227 56.8449 86.7988 56.4682C87.4865 55.7795 88.6471 55.4836 90.1999 55.6074C91.5539 55.715 92.4942 56.1454 92.9052 56.8476C93.2598 57.4529 93.319 58.5613 93.0288 59.1531C92.8703 59.4786 92.5318 59.7369 92.1288 59.8418C92.0429 59.8634 90.9065 60.0167 89.6062 60.1808C88.3059 60.3449 87.1024 60.5063 86.9331 60.544C85.7967 60.7888 84.8994 61.2058 84.1392 61.8434C83.3466 62.5079 82.8873 63.4064 82.7422 64.5659C82.7019 64.8941 82.7099 65.6878 82.7556 66.0106C82.8523 66.6993 83.078 67.2831 83.4702 67.875C83.712 68.2408 84.303 68.8246 84.6845 69.0802C85.6006 69.6909 86.6188 69.9518 87.9003 69.9115C89.0501 69.8711 89.9796 69.6371 90.9709 69.134C91.8441 68.6874 92.6205 68.1036 93.1013 67.5252C93.1873 67.423 93.2598 67.3396 93.2625 67.345C93.2679 67.3477 93.2948 67.4795 93.327 67.6328C93.4076 68.0418 93.4989 68.3215 93.6413 68.604C93.7434 68.8139 93.8079 68.8999 94.0094 69.1017C94.5037 69.594 95.0115 69.7555 96.0001 69.7232C96.5293 69.707 96.8786 69.6505 97.3245 69.5187L97.518 69.4595V68.4883V67.5172L97.4132 67.536C96.8893 67.6194 96.4326 67.6194 96.1935 67.5387C96.0377 67.4822 95.9061 67.3396 95.8362 67.1405C95.7879 67.006 95.7852 66.8258 95.769 62.0236C95.7556 57.5605 95.7502 57.0251 95.7099 56.8368C95.5407 56.0243 95.2694 55.4809 94.7831 54.9778C93.7488 53.9125 91.8441 53.3072 89.5659 53.3233C89.2919 53.326 88.9426 53.3395 88.7895 53.3502ZM93.1309 62.7957C93.1202 64.0333 93.1148 64.1705 93.0637 64.4072C92.8999 65.1766 92.5963 65.7416 92.0697 66.2554C91.4169 66.893 90.2778 67.4095 89.1226 67.5952C88.7573 67.6544 87.9244 67.6624 87.6504 67.6113C87.0245 67.4929 86.42 67.1782 86.0385 66.772C85.6087 66.3173 85.4341 65.7981 85.4636 65.0771C85.4932 64.3991 85.6758 63.9283 86.0681 63.5114C86.377 63.1831 86.7585 62.9545 87.2958 62.7742C87.8439 62.5913 88.2441 62.5186 89.8346 62.3196C90.3745 62.2523 90.9924 62.1608 91.21 62.1151C91.922 61.9725 92.5506 61.7627 92.9375 61.5421C93.0261 61.491 93.1094 61.4479 93.1202 61.4479C93.1336 61.4452 93.139 62.0532 93.1309 62.7957Z" fill="white"/>
<path d="M106.706 53.3774C105.631 53.5093 104.753 53.8832 103.971 54.5423C103.697 54.7737 103.208 55.2741 102.904 55.6319L102.689 55.8848L102.681 54.7898L102.676 53.6976H101.373H100.07V61.5397V69.3818H101.386H102.7L102.711 64.7062C102.719 60.504 102.724 60.0009 102.765 59.6996C102.953 58.3141 103.305 57.4693 103.944 56.8586C104.538 56.291 105.188 55.9439 105.956 55.7772C106.23 55.718 107.023 55.7126 107.297 55.7664C108.272 55.9574 108.841 56.4766 109.07 57.3806C109.223 57.9966 109.215 57.6415 109.223 63.7646L109.231 69.3818H110.574H111.915L111.923 64.4371C111.931 59.8906 111.936 59.4682 111.979 59.1723C112.132 58.1392 112.428 57.4317 112.933 56.8936C113.296 56.5089 113.913 56.1188 114.427 55.9466C115.67 55.5323 117.108 55.7745 117.804 56.517C118.064 56.7941 118.204 57.0846 118.319 57.5985L118.376 57.854L118.384 63.6166L118.392 69.3818H119.762H121.132V63.9771C121.132 58.4163 121.127 58.1015 121.022 57.3725C120.689 55.0508 119.429 53.7352 117.231 53.4151C116.823 53.3559 116.076 53.3344 115.652 53.3721C113.943 53.5227 112.592 54.3002 111.552 55.7287L111.498 55.8067L111.367 55.5781C110.859 54.6903 110.386 54.2114 109.661 53.8455C109.231 53.6303 108.815 53.5012 108.277 53.4151C107.958 53.364 106.996 53.3398 106.706 53.3774Z" fill="white"/>
<path d="M138.594 53.3747C137.347 53.5065 136.335 53.9128 135.397 54.6607C135.112 54.8893 134.516 55.4785 134.309 55.7341L134.175 55.9036L134.167 54.8006L134.161 53.6975H132.912H131.663V61.5397V69.3818H132.979H134.296V64.9214C134.296 62.2688 134.306 60.2995 134.323 60.06C134.371 59.331 134.473 58.7445 134.615 58.384C134.978 57.4639 135.84 56.5277 136.695 56.1215C137.159 55.9009 137.587 55.7933 138.191 55.7395C139.749 55.6023 140.746 56.0515 141.291 57.1357C141.466 57.4828 141.565 57.8029 141.665 58.3383L141.724 58.6611L141.732 64.0201L141.737 69.3818H143.083H144.426L144.416 63.8587C144.405 58.123 144.407 58.228 144.287 57.4236C143.937 55.0669 142.68 53.7702 140.407 53.4258C140.007 53.3639 138.973 53.3344 138.594 53.3747Z" fill="white"/>
<path d="M71.666 53.458C70.8225 53.5441 69.9386 53.8481 69.2106 54.2974C68.4718 54.7574 67.639 55.5779 67.1447 56.3339C66.4247 57.4369 66.0298 58.626 65.8256 60.2886C65.7558 60.8482 65.7558 62.7502 65.8256 63.3501C66.0674 65.47 66.688 66.8959 67.7975 67.894C68.7942 68.7898 69.8715 69.3064 71.1637 69.5081C71.5881 69.5754 72.746 69.5727 73.2323 69.5054C73.9522 69.4086 74.5057 69.2445 75.0134 68.9862C75.6635 68.6526 76.2787 68.1092 76.7542 67.4447L76.9047 67.2349L76.9208 67.399C76.953 67.7568 76.8912 69.2768 76.816 69.9467C76.7327 70.6865 76.5474 71.4317 76.3459 71.8352C75.9322 72.6584 75.2444 73.2503 74.3471 73.5489C73.3773 73.8718 71.9132 73.9067 70.9299 73.6296C70.4222 73.487 70.0434 73.2826 69.7157 72.9705C69.3745 72.6477 69.1327 72.2065 68.9876 71.6281L68.9124 71.3321L67.5772 71.3241L66.2394 71.3187L66.2582 71.5258C66.2877 71.8567 66.3979 72.3544 66.5161 72.7042C66.7068 73.2584 66.9674 73.7211 67.3247 74.1381C67.9157 74.8322 69.0064 75.4429 70.1858 75.7388C71.752 76.1343 73.7803 76.0751 75.274 75.5935C76.6521 75.1496 77.7106 74.3156 78.4091 73.1292C78.9061 72.2791 79.2204 71.2111 79.3709 69.8659C79.4568 69.0696 79.4649 68.4374 79.4649 61.1549V53.8588H78.2425H77.0202V54.8408V55.8254L76.8241 55.5887C76.2008 54.8381 75.6581 54.3834 74.9865 54.0391C74.4519 53.7674 73.8716 53.5844 73.2564 53.4957C72.8965 53.4419 72.0072 53.4203 71.666 53.458ZM73.6111 55.847C74.2746 55.9815 74.8227 56.2451 75.3465 56.6863C76.3244 57.5095 76.8509 58.7551 76.996 60.598C77.0363 61.1064 77.0121 62.309 76.953 62.7367C76.7892 63.95 76.4238 64.9777 75.8972 65.7229C75.5534 66.2099 74.9865 66.7129 74.5083 66.9551C73.7508 67.3371 72.7433 67.4958 71.8514 67.3774C70.4222 67.1864 69.3369 66.2072 68.8264 64.6522C68.547 63.7967 68.4423 62.8148 68.4826 61.4185C68.5094 60.4984 68.6035 59.764 68.7861 59.0645C68.907 58.5937 69.0091 58.3247 69.216 57.9077C69.8419 56.6594 70.844 55.9546 72.2275 55.7958C72.558 55.7582 73.3102 55.7851 73.6111 55.847Z" fill="white"/>
<path d="M153.2 53.4581C152.145 53.5657 151.105 53.9854 150.248 54.6445C149.92 54.8974 149.334 55.4731 149.063 55.8094C148.123 56.9742 147.594 58.3678 147.36 60.2887C147.301 60.7837 147.29 62.6857 147.346 63.221C147.572 65.3975 148.201 66.8771 149.332 67.894C150.328 68.7899 151.406 69.3064 152.698 69.5082C153.122 69.5755 154.28 69.5728 154.766 69.5055C155.486 69.4087 156.04 69.2446 156.548 68.9863C157.198 68.6527 157.813 68.1093 158.288 67.4448L158.439 67.2322L158.455 67.4125C158.485 67.8053 158.425 69.2822 158.35 69.9467C158.267 70.6865 158.082 71.4317 157.88 71.8353C157.542 72.5105 156.969 73.0755 156.314 73.3795C155.634 73.6916 154.729 73.8476 153.759 73.8126C152.612 73.7696 151.811 73.5032 151.25 72.9706C150.909 72.6477 150.667 72.2065 150.522 71.6281L150.447 71.3322L149.111 71.3241L147.774 71.3187L147.792 71.5259C147.843 72.0935 148.048 72.8011 148.311 73.3176C148.746 74.1704 149.38 74.7623 150.374 75.2465C151.497 75.7927 152.733 76.0321 154.243 75.9917C156.153 75.9406 157.566 75.494 158.691 74.5928C159.954 73.5786 160.661 72.0666 160.905 69.866C160.991 69.0804 160.999 68.4025 160.999 61.1415V53.8589H159.777H158.554V54.8409V55.8255L158.358 55.5888C157.735 54.8382 157.192 54.3835 156.521 54.0392C155.986 53.7674 155.406 53.5845 154.791 53.4957C154.431 53.4419 153.541 53.4204 153.2 53.4581ZM155.145 55.847C155.809 55.9815 156.357 56.2452 156.881 56.6864C157.775 57.4397 158.294 58.5588 158.493 60.1676C158.562 60.7191 158.56 62.2014 158.493 62.7099C158.323 63.9474 157.963 64.9697 157.431 65.723C157.058 66.253 156.486 66.7426 155.94 67.0009C155.03 67.4313 153.786 67.5389 152.843 67.2699C152.521 67.1784 152.053 66.9444 151.795 66.7507C150.686 65.914 150.089 64.4935 150.017 62.5216C149.979 61.5262 150.041 60.4689 150.186 59.6699C150.608 57.3347 151.822 56.0192 153.762 55.7959C154.092 55.7582 154.844 55.7851 155.145 55.847Z" fill="white"/>
<path d="M125.027 61.5801V69.3818H126.357H127.687V61.5801V53.7783H126.357H125.027V61.5801Z" fill="white"/>
</g>
<defs>
<clipPath id="clip0_927_440">
<rect width="161" height="76" fill="white"/>
</clipPath>
</defs>
</svg>
