<svg width="153" height="71" viewBox="0 0 153 71" fill="none" xmlns="http://www.w3.org/2000/svg">
<g clip-path="url(#clip0_927_486)">
<path d="M25.3918 65.719H25.1485C24.9862 64.4616 23.7694 63.8749 22.877 63.8749C22.6336 63.8749 21.6601 63.9587 21.6601 64.8808C21.6601 65.5514 22.3091 65.8867 22.7147 66.0543C23.2826 66.3058 24.175 66.4734 24.824 66.8926C25.6352 67.4793 25.7975 68.1499 25.7975 68.6529C25.7975 69.9941 24.7428 71 23.2015 71C22.6336 71 22.228 70.8324 21.8224 70.6647C21.4979 70.4971 21.3356 70.497 21.2545 70.497C21.0923 70.497 20.93 70.5809 20.7678 71H20.5244V68.3176H20.7678C20.93 69.1558 21.4979 70.5809 23.1204 70.5809C24.2561 70.5809 24.6617 69.9941 24.6617 69.3235C24.6617 68.8205 24.3372 68.4014 23.4449 68.0661C22.7147 67.8146 21.9846 67.5632 21.4168 67.144C20.6866 66.5573 20.6055 65.8867 20.6055 65.5514C20.6055 64.4616 21.4979 63.4557 22.9581 63.4557C23.526 63.4557 23.9316 63.5396 24.3372 63.7072C24.5806 63.791 24.7428 63.8749 24.9051 63.8749C25.1485 63.8749 25.2296 63.7072 25.2296 63.4557V63.3719H25.473L25.3918 65.719ZM26.6898 70.5809H27.0143C27.2577 70.5809 27.5822 70.497 27.5822 69.9103V64.4616C27.5822 63.8749 27.2577 63.791 27.0143 63.791H26.6898V63.5396H30.3404C30.9083 63.5396 32.7741 63.7072 32.7741 65.3837C32.7741 66.3058 32.2874 67.3955 30.0159 67.3955C29.7725 67.3955 29.5292 67.3955 29.2858 67.3955V69.9103C29.2858 70.497 29.6103 70.5809 29.8537 70.5809H30.3404V70.8324H26.7709V70.5809H26.6898ZM29.2047 66.9764C29.3669 67.0602 29.5292 67.0602 29.6914 67.0602C30.2593 67.0602 31.0705 66.9764 31.0705 65.4675C31.0705 64.0425 30.2593 64.0425 29.6914 64.0425H29.2047V66.9764ZM32.044 70.5809C32.4496 70.5809 32.693 70.4132 32.9364 69.7426L35.3701 63.4557H35.6135L38.3717 70.0779C38.4528 70.3294 38.6151 70.5809 38.9396 70.5809V70.8324H35.6946V70.5809H36.0191C36.4247 70.5809 36.6681 70.497 36.6681 70.1617C36.6681 70.0779 36.6681 69.9103 36.587 69.9103L36.1002 68.6529H33.9099L33.5042 69.7426C33.5042 69.8264 33.4231 69.9941 33.4231 70.1617C33.4231 70.497 33.8287 70.5809 34.2344 70.5809V70.8324H32.1251V70.5809H32.044ZM33.991 68.1499H35.8568L34.8834 65.8028L33.991 68.1499ZM48.1877 66.3896V66.6411C48.0254 66.6411 47.701 66.7249 47.4576 67.0602C47.3765 67.144 47.2953 67.3117 46.9708 67.8985C46.8086 68.2338 46.6463 68.4852 46.403 68.8205C46.8897 69.4073 47.2953 69.6588 47.6198 69.6588C47.7821 69.6588 47.9443 69.575 48.0254 69.3235L48.2688 69.4073C47.8632 70.2456 47.2953 70.7485 46.7275 70.7485C46.4841 70.7485 45.9973 70.5809 45.3484 69.8264C44.456 70.5809 43.807 70.7485 43.2391 70.7485C42.1845 70.7485 41.4544 69.9941 41.4544 68.9044C41.4544 68.2338 41.7789 67.3117 43.3203 66.4734C43.0769 66.222 42.9958 65.8028 42.9958 65.3837C42.9958 64.294 43.807 63.4557 44.9427 63.4557C46.1596 63.4557 46.3218 64.4616 46.3218 64.7969C46.3218 65.719 45.6728 66.1381 44.6994 66.5573C45.1861 67.3955 45.4295 67.8146 45.9973 68.5691C46.2407 68.3176 46.5652 67.647 46.5652 67.2279C46.5652 66.8087 46.3218 66.6411 46.0785 66.6411V66.3896H48.1877ZM43.3203 67.0602C42.7524 67.3117 42.7524 67.7308 42.7524 67.9823C42.7524 68.9044 43.5636 69.9103 44.2937 69.9103C44.5371 69.9103 44.7805 69.8264 44.9427 69.6588C44.2126 68.7367 43.807 68.0661 43.3203 67.0602ZM45.3484 65.0484C45.3484 64.3778 45.0239 63.8749 44.6182 63.8749C44.3749 63.8749 44.0504 64.0425 44.0504 64.5455C44.0504 64.9646 44.1315 65.2999 44.456 66.1381C45.3484 65.8867 45.3484 65.2999 45.3484 65.0484ZM56.4623 66.7249V64.4616C56.4623 63.8749 56.1379 63.791 55.8945 63.791H55.57V63.5396H58.9772V63.791H58.6527C58.4905 63.791 58.0848 63.8749 58.0848 64.4616V69.9103C58.0848 70.497 58.4093 70.5809 58.6527 70.5809H58.9772V70.8324H55.57V70.5809H55.8945C56.1379 70.5809 56.4623 70.497 56.4623 69.9103V67.2279H53.7853V69.9103C53.7853 70.497 54.1098 70.5809 54.3531 70.5809H54.6776V70.8324H51.2704V70.5809H51.5949C51.8383 70.5809 52.1628 70.497 52.1628 69.9103V64.4616C52.1628 63.8749 51.8383 63.791 51.5949 63.791H51.2704V63.5396H54.6776V63.791H54.3531C54.1098 63.791 53.7853 63.8749 53.7853 64.4616V66.7249H56.4623ZM63.0334 63.4557C65.2237 63.4557 66.6029 65.0484 66.6029 67.2279C66.6029 69.4073 65.2237 71 63.0334 71C60.843 71 59.4639 69.4073 59.4639 67.2279C59.4639 65.0484 60.9242 63.4557 63.0334 63.4557ZM63.0334 70.497C64.0069 70.497 64.8993 69.7426 64.8993 67.2279C64.8993 64.7131 64.0069 63.9587 63.0334 63.9587C62.0599 63.9587 61.1675 64.7131 61.1675 67.2279C61.2487 69.7426 62.141 70.497 63.0334 70.497ZM71.0647 69.9103C71.0647 70.497 71.3892 70.5809 71.6326 70.5809H72.0382V70.8324H68.4687V70.5809H68.8743C69.1177 70.5809 69.4422 70.497 69.4422 69.9103V64.0425H69.1177C68.4687 64.0425 67.6575 64.0425 67.4141 65.6352H67.1707V63.5396H73.255V65.6352H73.0117C72.8494 64.0425 72.0382 64.0425 71.3081 64.0425H70.9836V69.9103H71.0647ZM79.5827 65.6352H79.3393C79.2582 65.1322 79.0148 64.0425 77.5546 64.0425H76.2566V66.8926H76.4189C76.9056 66.8926 77.6357 66.8926 77.7169 65.2999H77.9602V68.9044H77.7169C77.6357 67.3117 76.9056 67.3117 76.4189 67.3117H76.2566V69.6588C76.2566 69.9941 76.2566 70.2456 77.0679 70.2456C77.149 70.2456 77.2301 70.2456 77.3112 70.2456C78.0414 70.2456 79.2582 70.0779 79.6638 68.4014H79.9072L79.5016 70.6647H73.8229V70.4132H74.1474C74.3908 70.4132 74.7153 70.3294 74.7153 69.7426V64.294C74.7153 63.7072 74.3908 63.6234 74.1474 63.6234H73.8229V63.3719H79.5827V65.6352ZM81.3674 64.4616C81.3674 63.8749 81.0429 63.791 80.7996 63.791H80.4751V63.5396H83.8823V63.791H83.5578C83.3144 63.791 82.9899 63.8749 82.9899 64.4616V69.7426C82.9899 70.3294 83.3144 70.3294 83.9634 70.3294C84.8558 70.3294 85.8293 70.0779 86.2349 67.9823H86.4783L86.2349 70.8324H80.4751V70.5809H80.7996C81.0429 70.5809 81.3674 70.497 81.3674 69.9103V64.4616ZM91.7513 69.9103C91.7513 70.497 92.0758 70.5809 92.3192 70.5809H92.6437V70.8324H89.2365V70.5809H89.561C89.8043 70.5809 90.1288 70.497 90.1288 69.9103V64.4616C90.1288 63.8749 89.8043 63.791 89.561 63.791H89.2365V63.5396H92.9682C93.536 63.5396 95.0774 63.7072 95.0774 65.4675C95.0774 66.6411 94.185 67.144 93.6172 67.2279L95.3208 69.9941C95.483 70.3294 95.7264 70.5809 96.132 70.5809V70.8324H94.1039L92.1569 67.4793H91.7513V69.9103ZM91.7513 66.9764C91.8324 66.9764 91.9136 66.9764 92.0758 66.9764C92.6437 66.9764 93.6172 66.8087 93.6172 65.2999C93.6172 64.0425 92.6437 63.9587 92.1569 63.9587C91.9947 63.9587 91.9136 63.9587 91.7513 63.9587V66.9764ZM102.054 65.6352H101.811C101.811 65.1322 101.486 64.0425 100.026 64.0425H98.8091V66.8926H98.9714C99.4581 66.8926 100.188 66.8926 100.269 65.2999H100.513V68.9044H100.269C100.107 67.3117 99.4581 67.3117 98.9714 67.3117H98.8091V69.6588C98.8091 69.9941 98.8091 70.2456 99.6204 70.2456C99.7015 70.2456 99.7826 70.2456 99.8637 70.2456C100.513 70.2456 101.811 70.0779 102.216 68.4014H102.46L102.135 70.6647H96.3754V70.4132H96.6999C96.9433 70.4132 97.2678 70.3294 97.2678 69.7426V64.294C97.2678 63.7072 96.9433 63.6234 96.6999 63.6234H96.3754V63.3719H102.135V65.6352H102.054ZM108.138 65.719H107.895C107.733 64.4616 106.516 63.8749 105.624 63.8749C105.38 63.8749 104.407 63.9587 104.407 64.8808C104.407 65.5514 105.056 65.8867 105.461 66.0543C106.029 66.3058 106.922 66.4734 107.571 66.8926C108.382 67.4793 108.544 68.1499 108.544 68.6529C108.544 69.9941 107.489 71 105.948 71C105.38 71 104.975 70.8324 104.569 70.6647C104.244 70.4971 104.082 70.497 104.001 70.497C103.839 70.497 103.677 70.5809 103.514 71H103.271V68.3176H103.514C103.677 69.1558 104.244 70.5809 105.867 70.5809C107.003 70.5809 107.408 69.9941 107.408 69.3235C107.408 68.8205 107.084 68.4014 106.191 68.0661C105.461 67.8146 104.731 67.5632 104.163 67.144C103.433 66.5573 103.352 65.8867 103.352 65.5514C103.352 64.4616 104.244 63.4557 105.705 63.4557C106.273 63.4557 106.678 63.5396 107.084 63.7072C107.327 63.791 107.489 63.8749 107.652 63.8749C107.895 63.8749 107.976 63.7072 107.976 63.4557V63.3719H108.219L108.138 65.719ZM113.087 63.4557C115.277 63.4557 116.656 65.0484 116.656 67.2279C116.656 69.4073 115.277 71 113.087 71C110.897 71 109.517 69.4073 109.517 67.2279C109.436 65.0484 110.897 63.4557 113.087 63.4557ZM113.087 70.497C114.06 70.497 114.953 69.7426 114.953 67.2279C114.953 64.7131 114.06 63.9587 113.087 63.9587C112.113 63.9587 111.221 64.7131 111.221 67.2279C111.221 69.7426 112.113 70.497 113.087 70.497ZM119.577 69.9103C119.577 70.497 119.901 70.5809 120.145 70.5809H120.469V70.8324H117.062V70.5809H117.387C117.63 70.5809 117.954 70.497 117.954 69.9103V64.4616C117.954 63.8749 117.63 63.791 117.387 63.791H117.062V63.5396H120.794C121.362 63.5396 122.903 63.7072 122.903 65.4675C122.903 66.6411 122.011 67.144 121.443 67.2279L123.146 69.9941C123.309 70.3294 123.552 70.5809 123.958 70.5809V70.8324H121.929L119.982 67.4793H119.577V69.9103ZM119.577 66.9764C119.658 66.9764 119.739 66.9764 119.901 66.9764C120.469 66.9764 121.443 66.8087 121.443 65.2999C121.443 64.0425 120.469 63.9587 119.982 63.9587C119.82 63.9587 119.739 63.9587 119.577 63.9587V66.9764ZM127.527 69.9103C127.527 70.497 127.852 70.5809 128.095 70.5809H128.501V70.8324H124.931V70.5809H125.337C125.58 70.5809 125.905 70.497 125.905 69.9103V64.0425H125.58C124.931 64.0425 124.12 64.0425 123.876 65.6352H123.633V63.5396H129.717V65.6352H129.474C129.231 64.0425 128.501 64.0425 127.77 64.0425H127.446V69.9103H127.527ZM5.43531 56.6659C5.43531 57.8394 6.24655 58.0071 6.7333 58.0071H7.46341V58.5939H0V58.0071H0.730117C1.29799 58.0071 2.0281 57.8394 2.0281 56.6659V45.098C2.0281 43.9244 1.21686 43.7568 0.730117 43.7568H0V43.17H8.03128C9.16702 43.17 12.6554 43.5891 12.6554 47.1936C12.6554 49.7084 10.7895 50.7143 9.57264 50.9658L13.2232 56.8335C13.6288 57.5041 14.1156 58.0071 15.008 58.0909V58.6777H10.5461L6.24655 51.5525H5.43531V56.6659ZM5.43531 50.4628C5.67868 50.4628 5.84093 50.4628 6.0843 50.4628C7.38229 50.4628 9.49152 50.2113 9.49152 46.9422C9.49152 44.2597 7.38229 44.0921 6.32768 44.0921C6.00318 44.0921 5.75981 44.0921 5.51644 44.1759V50.4628H5.43531ZM22.228 42.8347C26.9332 42.8347 30.0159 46.2715 30.0159 50.8819C30.0159 55.4923 26.9332 58.9292 22.228 58.9292C17.5228 58.9292 14.4401 55.4923 14.4401 50.8819C14.4401 46.2715 17.5228 42.8347 22.228 42.8347ZM22.228 57.9233C24.2561 57.9233 26.2031 56.3306 26.2031 50.8819C26.2031 45.4333 24.2561 43.8406 22.228 43.8406C20.1999 43.8406 18.2529 45.4333 18.2529 50.8819C18.2529 56.3306 20.1999 57.9233 22.228 57.9233ZM35.289 43.17V43.7568H35.2078C34.0721 43.7568 34.0721 44.1759 34.0721 44.4274C34.0721 44.9303 34.3155 45.098 34.3966 45.4333L37.0737 51.2172L39.913 45.4333C39.9942 45.1818 40.1564 44.7627 40.1564 44.595C40.1564 43.8406 39.264 43.8406 38.8584 43.8406H38.5339V43.2538H42.9146V43.8406C42.0223 43.8406 41.4544 44.5112 40.7243 46.0201L37.6416 52.1393V56.6659C37.6416 57.8394 38.4528 58.0071 38.9396 58.0071H39.7508V58.5939H32.044V58.0071H32.9364C33.5042 58.0071 34.2344 57.8394 34.2344 56.6659V52.8937L30.746 45.6848C30.2593 44.6789 29.6914 43.673 28.5557 43.7568V43.17H35.289ZM40.3998 58.0071H40.562C41.3733 58.0071 41.86 57.6718 42.4279 56.1629L47.6198 42.8347H48.1066L53.9475 57.0012C54.1909 57.588 54.5154 58.0071 55.2455 58.0071H55.3266V58.5939H48.2688V58.0071H48.9178C49.7291 58.0071 50.2969 57.8394 50.2969 57.1688C50.2969 57.085 50.2158 56.6659 50.2158 56.5821L49.0801 53.8997H44.2937L43.4014 56.2468C43.3203 56.4982 43.2391 56.7497 43.2391 57.1688C43.2391 57.9233 44.0504 58.0909 45.0239 58.0909H45.105V58.6777H40.4809V58.0071H40.3998ZM44.6994 52.8937H48.7556L46.6463 47.8642L44.6994 52.8937ZM57.2736 45.098C57.2736 43.9244 56.4624 43.7568 55.9756 43.7568H55.2455V43.17H62.7089V43.7568H61.9788C61.4109 43.7568 60.6808 43.9244 60.6808 45.098V56.4144C60.6808 57.7556 61.4109 57.588 62.8712 57.588C64.737 57.588 66.9274 57.085 67.8197 52.5584H68.3876L67.8197 58.5939H55.2455V58.0071H55.9756C56.5435 58.0071 57.2736 57.8394 57.2736 56.6659V45.098ZM86.3971 48.2834H85.7481C85.4236 45.9362 83.4767 44.1759 81.5297 44.1759C79.8261 44.1759 76.9056 45.098 76.9056 50.9658C76.9056 52.3908 77.0679 57.6718 81.6919 57.6718C83.3955 57.6718 84.9369 56.8335 86.316 54.4026L86.965 54.7379C85.1803 58.3424 82.5843 58.8453 80.8807 58.8453C76.3377 58.8453 73.0928 55.4923 73.0928 50.9658C73.0928 46.523 76.0944 43.0024 80.7184 43.0024C81.6108 43.0024 82.3409 43.17 83.1522 43.4215C84.1257 43.7568 84.4501 44.0083 84.8558 44.0083C85.4236 44.0083 85.5859 43.5891 85.667 43.0024H86.316V48.2834H86.3971ZM85.9915 57.9233H86.1538C86.965 57.9233 87.3706 57.588 87.9385 56.1629L93.0493 43.0024H93.536L99.377 56.9174C99.6204 57.5041 99.9448 57.9233 100.594 57.9233H100.675V58.51H93.7794V57.9233H94.4284C95.2397 57.9233 95.8075 57.7556 95.8075 57.085C95.8075 57.0012 95.7264 56.6659 95.7264 56.4982L94.6718 53.8158H89.9666L89.0742 56.0791C88.9931 56.3306 88.912 56.5821 88.912 56.9174C88.912 57.6718 89.7232 57.8394 90.6156 57.8394H90.6967V58.4262H85.9915V57.9233ZM90.21 52.8937H94.185L92.0758 47.9481L90.21 52.8937ZM111.87 47.8642H111.302C110.897 45.1818 108.301 44.0083 106.435 44.0083C105.867 44.0083 103.839 44.2597 103.839 46.1039C103.839 47.6128 105.137 48.1995 106.029 48.5348C107.327 48.954 109.112 49.4569 110.572 50.379C112.357 51.5525 112.6 52.9776 112.6 54.1511C112.6 57.0012 110.329 59.013 107.084 59.013C105.786 59.013 104.975 58.7615 104.163 58.3424C103.514 58.0071 103.19 57.9233 102.946 57.9233C102.703 57.9233 102.216 58.0909 101.892 59.013H101.324V53.3129H101.892C102.216 55.0732 103.514 58.0071 106.922 58.0071C109.355 58.0071 110.248 56.7497 110.248 55.4085C110.248 54.3188 109.599 53.4805 107.571 52.8099C105.948 52.2231 104.407 51.804 103.271 50.9658C101.648 49.7922 101.486 48.3672 101.486 47.5289C101.486 45.2656 103.352 43.17 106.435 43.17C107.652 43.17 108.544 43.4215 109.436 43.7568C109.923 44.0083 110.248 44.1759 110.572 44.1759C111.14 44.1759 111.221 43.8406 111.221 43.2538V43.0862H111.789L111.87 47.8642ZM113.574 58.0071H114.304C114.791 58.0071 115.602 57.8394 115.602 56.6659V45.2656C115.602 44.0921 114.872 43.9244 114.304 43.9244H113.574V43.3377H120.875V43.9244H120.145C119.658 43.9244 118.847 44.0921 118.847 45.2656V56.5821C118.847 57.7556 119.577 57.9233 120.145 57.9233H120.875V58.51H113.574V58.0071ZM127.04 43.2538L134.909 52.9776V45.1818C134.909 44.0083 134.179 43.8406 133.611 43.8406H132.881V43.2538H137.83V43.8406H137.1C136.613 43.8406 135.802 44.0083 135.802 45.1818V58.7615H135.234L125.012 46.1039V56.5821C125.012 57.7556 125.742 57.9233 126.31 57.9233H127.04V58.51H122.092V57.9233H122.822C123.309 57.9233 124.12 57.7556 124.12 56.5821V45.098C123.633 44.3436 122.984 43.8406 122.011 43.8406V43.2538H127.04ZM145.293 43.0862C149.917 43.0862 153 46.4392 153 50.9658C153 55.4923 149.998 58.8453 145.293 58.8453C140.669 58.8453 137.586 55.4923 137.586 50.9658C137.668 46.4392 140.669 43.0862 145.293 43.0862ZM145.293 57.9233C147.321 57.9233 149.187 56.3306 149.187 50.9658C149.187 45.6009 147.24 44.0083 145.293 44.0083C143.265 44.0083 141.399 45.6009 141.399 50.9658C141.399 56.3306 143.346 57.9233 145.293 57.9233ZM63.7635 25.3152C63.6824 25.2314 63.6824 25.1476 63.5201 25.0638C63.2768 24.8123 62.9523 24.7285 62.6278 24.8961C62.141 25.0638 61.8977 25.4829 62.0599 25.902C62.2222 26.3211 62.7089 26.4888 63.1956 26.405C63.2768 26.3211 63.439 26.3211 63.5201 26.2373C63.7635 25.902 63.8446 25.5667 63.7635 25.3152ZM62.6278 22.4652C62.4655 22.1299 62.141 21.8784 61.7354 21.8784C61.5732 21.8784 61.492 21.8784 61.4109 21.9622C61.0864 22.046 60.8431 22.2975 60.7619 22.549C60.7619 22.7166 60.7619 22.8005 60.7619 22.9681C60.7619 22.9681 60.7619 23.0519 60.8431 23.0519C61.0053 23.3872 61.3298 23.6387 61.7354 23.6387C61.8165 23.6387 61.9788 23.6387 62.0599 23.5549C62.6278 23.3872 62.8712 22.8843 62.6278 22.4652ZM63.8446 27.7462C63.6824 27.7462 63.6824 27.83 63.5201 27.9138C63.3579 28.0815 63.1956 28.4168 63.3579 28.5844C63.439 28.6682 63.439 28.7521 63.5201 28.8359C63.7635 29.0035 64.088 29.0874 64.3314 29.0035C64.737 28.9197 64.9804 28.4168 64.8181 28.0815C64.6559 27.83 64.2503 27.5785 63.8446 27.7462ZM65.6294 9.63991C66.2784 9.55608 66.7651 9.05313 66.6029 8.46635C66.5217 7.9634 65.9539 7.54427 65.386 7.54427C65.3049 7.54427 65.2238 7.54427 65.1426 7.54427C64.4125 7.54427 63.9258 8.04723 64.088 8.634C64.2503 9.13695 64.737 9.55608 65.3049 9.55608C65.386 9.6399 65.4671 9.63991 65.6294 9.63991ZM60.9242 20.7048C61.4109 20.5372 61.6543 20.0342 61.492 19.6151C61.3298 19.2798 61.0864 19.1122 60.7619 19.0283C60.6808 19.0283 60.5997 19.0283 60.5997 19.0283C60.5186 19.0283 60.3563 19.0283 60.2752 19.1122C60.1129 19.196 59.9507 19.2798 59.8696 19.3636C59.6262 19.6151 59.5451 19.9504 59.7073 20.2857C59.7884 20.3695 59.8696 20.4534 59.8696 20.5372C60.0318 20.7048 60.2752 20.7887 60.5997 20.7887C60.6808 20.7887 60.7619 20.7887 60.7619 20.7887C60.8431 20.7887 60.843 20.7887 60.9242 20.7048ZM59.8696 17.8548C60.2752 17.6871 60.5186 17.268 60.3563 16.7651C60.2752 16.5974 60.1129 16.3459 59.8696 16.3459C59.7073 16.2621 59.5451 16.2621 59.4639 16.2621C59.3017 16.2621 59.2206 16.2621 59.1394 16.3459C58.6527 16.5136 58.4093 17.0165 58.5716 17.4357C58.7338 17.771 59.0583 18.0224 59.4639 18.0224C59.6262 18.0224 59.7073 18.0224 59.7884 17.9386C59.7884 17.9386 59.7884 17.9386 59.8696 17.8548ZM69.6045 25.8182C69.28 25.902 69.0366 25.9858 68.9555 26.2373C68.8743 26.405 68.7932 26.5726 68.8743 26.8241C68.8743 26.9079 68.9555 26.9917 68.9555 26.9917C69.1177 27.327 69.6045 27.5785 70.0912 27.4947C70.6591 27.4109 70.9836 26.9917 70.9024 26.5726C70.7402 26.1535 70.1723 25.8182 69.6045 25.8182ZM67.8197 18.3577C67.5763 18.3577 67.333 18.5254 67.1707 18.6092C66.9274 18.8607 66.7651 19.196 66.8462 19.5313C66.9274 19.6989 67.0085 19.9504 67.1707 20.0342C67.4952 20.2857 67.9008 20.4534 68.3876 20.3695C68.631 20.3695 68.8743 20.2857 69.0366 20.1181C69.28 19.8666 69.4422 19.5313 69.3611 19.196C69.28 19.0283 69.1988 18.7769 69.0366 18.693C68.631 18.5254 68.2253 18.3577 67.8197 18.3577ZM67.1707 12.9929C67.4141 12.7414 67.5763 12.4061 67.4952 12.0708C67.4141 11.9032 67.333 11.6517 67.1707 11.5679C66.8462 11.3164 66.4406 11.1488 65.9539 11.1488C65.7105 11.2326 65.4671 11.3164 65.3049 11.4002C65.0615 11.5679 64.8993 11.9032 64.9804 12.3223C65.0615 12.49 65.1426 12.7414 65.3049 12.8253C65.6294 13.0767 66.035 13.2444 66.4406 13.2444C66.7651 13.1606 66.9274 13.0767 67.1707 12.9929ZM76.5811 19.7828C75.851 19.7828 75.202 20.2857 75.202 20.9563C75.202 21.6269 75.851 22.1299 76.5811 22.1299C77.3112 22.1299 77.9602 21.6269 77.9602 20.9563C77.9602 20.2857 77.3112 19.7828 76.5811 19.7828ZM76.5811 24.3932C75.9321 24.3932 75.3643 24.8961 75.3643 25.4829C75.3643 26.0697 75.9321 26.4888 76.5811 26.4888C77.2301 26.4888 77.798 25.9858 77.798 25.4829C77.798 24.8961 77.2301 24.3932 76.5811 24.3932ZM59.1394 13.9988C58.9772 13.6635 58.6527 13.412 58.2471 13.412C58.166 13.412 58.0037 13.412 57.9226 13.4959C57.4358 13.6635 57.1113 14.1665 57.3547 14.5856C57.517 14.9209 57.8415 15.1724 58.2471 15.1724C58.3282 15.1724 58.4905 15.1724 58.5716 15.0885C59.0583 15.0047 59.3017 14.5018 59.1394 13.9988ZM67.4141 16.8489C68.0631 16.7651 68.5498 16.2621 68.3876 15.6753C68.2253 15.1724 67.7386 14.7532 67.1707 14.7532C67.0896 14.7532 67.0085 14.7532 66.9274 14.7532C66.2784 14.8371 65.7916 15.4238 65.9539 15.9268C66.1161 16.4298 66.6029 16.7651 67.1707 16.8489C67.2519 16.8489 67.333 16.8489 67.4141 16.8489ZM68.7121 22.1299C68.0631 22.2137 67.7386 22.6328 67.8197 23.2196C67.9008 23.6387 68.3876 23.974 68.9555 24.0579C69.0366 24.0579 69.1177 24.0579 69.1988 24.0579C69.8478 23.974 70.1723 23.5549 70.0912 23.0519C70.0101 22.6328 69.5233 22.2137 68.9555 22.2137C68.8743 22.046 68.7932 22.046 68.7121 22.1299ZM78.5281 32.4404C77.7169 32.4404 77.0679 33.4463 77.0679 34.536C77.0679 35.7096 77.7169 36.6316 78.5281 36.6316C79.3393 36.6316 79.9883 35.7096 79.9883 34.536C79.9883 33.3625 79.3393 32.4404 78.5281 32.4404ZM73.0117 32.4404C72.2004 32.4404 71.5514 33.4463 71.5514 34.536C71.5514 35.7096 72.2004 36.6316 73.0117 36.6316C73.8229 36.6316 74.553 35.7096 74.553 34.536C74.553 33.3625 73.904 32.4404 73.0117 32.4404ZM88.912 35.1228C88.912 35.1228 88.8309 35.1228 88.7497 35.1228C88.1007 35.1228 87.5329 35.8772 87.5329 36.8831C87.5329 37.8052 88.1007 38.5596 88.7497 38.5596C88.8309 38.5596 88.8308 38.5596 88.912 38.5596C89.1553 38.5596 89.3176 38.392 89.4799 38.2243C89.8043 37.889 89.9666 37.3861 89.9666 36.7993C89.9666 36.2125 89.8043 35.7096 89.4799 35.3743C89.3176 35.2066 89.0742 35.1228 88.912 35.1228ZM83.72 33.4463C83.4767 33.4463 83.3144 33.5301 83.071 33.6978C82.6654 34.0331 82.3409 34.6198 82.3409 35.3743C82.3409 36.1287 82.6654 36.7993 83.071 37.0508C83.2333 37.2184 83.4767 37.3022 83.72 37.3022C84.2068 37.3022 84.6124 36.9669 84.8558 36.3802C85.018 36.0449 85.0992 35.7096 85.0992 35.3743C85.0992 35.039 85.018 34.7037 84.8558 34.3684C84.6935 33.7816 84.2879 33.4463 83.72 33.4463ZM67.7386 33.3625C67.5763 33.3625 67.333 33.4463 67.1707 33.5301C66.7651 33.8654 66.4406 34.4522 66.4406 35.2904C66.4406 36.0449 66.7651 36.7155 67.1707 36.9669C67.333 37.1346 67.5763 37.1346 67.7386 37.1346C68.2253 37.1346 68.7121 36.7155 68.9555 36.1287C69.0366 35.8772 69.1177 35.5419 69.1177 35.2904C69.1177 34.9551 69.0366 34.7037 68.9555 34.4522C68.7121 33.6978 68.2253 33.3625 67.7386 33.3625ZM62.79 35.2066C62.2222 35.2066 61.7354 35.8772 61.7354 36.7155C61.7354 37.5537 62.2222 38.2243 62.79 38.2243C63.1145 38.2243 63.3579 38.1405 63.5201 37.8052C63.7635 37.5537 63.9258 37.1346 63.9258 36.6316C63.9258 36.2125 63.7635 35.7934 63.5201 35.4581C63.3579 35.3743 63.1145 35.2066 62.79 35.2066ZM91.9947 34.4522C91.9136 34.3684 91.9136 34.2845 91.8324 34.2845C91.5891 33.9492 91.3457 33.6139 91.0212 33.3625C90.9401 33.2786 90.859 33.2786 90.859 33.2786C90.7778 33.1948 90.6967 33.1948 90.6156 33.1948C88.1819 32.5242 85.7481 31.9374 83.2333 31.6021C80.7184 31.183 78.2847 31.0153 75.9321 31.0153C73.4173 31.0153 70.9836 31.2668 68.5498 31.6021C66.1161 32.0213 63.6013 32.5242 61.1675 33.1948C60.7619 33.2786 60.4374 33.5301 60.1941 33.8654C60.1129 33.9492 60.1129 33.9492 60.0318 34.0331C60.0318 34.1169 59.9507 34.1169 59.9507 34.2007C59.7884 34.3684 59.7073 34.6198 59.6262 34.8713C59.6262 34.9551 59.6262 34.9551 59.6262 35.039C59.5451 35.3743 59.4639 35.6257 59.4639 35.961V37.1346V38.392C59.4639 38.6434 59.5451 38.9787 59.6262 39.1464C59.7073 39.3979 59.8696 39.5655 60.0318 39.7332C60.2752 39.9008 60.5997 40.0685 60.9242 39.9847C61.0053 39.9847 61.0864 39.9847 61.0864 39.9847C61.1675 39.9847 61.2487 39.9847 61.2487 39.9847C63.6824 39.314 66.1161 38.8111 68.5498 38.392C70.9836 37.9728 73.4173 37.8052 75.851 37.8052C78.2036 37.8052 80.6373 38.0567 83.071 38.392C85.5048 38.8111 87.9385 39.314 90.3722 39.9847C90.7778 40.0685 91.1023 40.0685 91.3457 39.9847C91.4268 39.9847 91.5079 39.9008 91.5079 39.9008C91.5891 39.817 91.5891 39.817 91.6702 39.817C91.8324 39.6493 91.9947 39.3979 92.0758 39.2302C92.1569 38.9787 92.2381 38.7273 92.2381 38.4758V37.2184V36.0449C92.2381 35.6257 92.1569 35.2066 91.9947 34.7875C92.0758 34.6198 91.9947 34.536 91.9947 34.4522ZM91.9947 37.1346C91.9947 37.5537 91.9947 37.889 91.9947 38.392C91.9947 38.8949 91.8324 39.2302 91.5891 39.4817C91.3457 39.6493 91.0212 39.7332 90.6156 39.6493C90.4533 39.5655 90.2911 39.5655 90.21 39.4817C89.9666 39.3979 89.8043 39.3979 89.561 39.3141C89.3987 39.2302 89.1553 39.2302 88.9931 39.1464C88.4252 38.9787 87.7762 38.8949 87.2084 38.7273C86.4783 38.5596 85.7481 38.392 85.018 38.3081C84.4502 38.2243 83.8012 38.1405 83.2333 37.9728C81.6919 37.7214 80.1506 37.5537 78.6092 37.4699C77.9602 37.3861 77.3112 37.3861 76.6622 37.3861C76.5 37.3861 76.2566 37.3861 76.0133 37.3861C75.0398 37.3861 74.0663 37.4699 73.1739 37.4699C71.7948 37.5537 70.4157 37.7214 69.1177 37.889C68.4687 37.9728 67.9008 38.0567 67.333 38.2243C66.684 38.3081 66.1161 38.4758 65.5482 38.5596C64.9804 38.7273 64.3314 38.8111 63.7635 38.9787C63.1956 39.0626 62.5467 39.2302 61.9788 39.3979C61.8165 39.4817 61.5732 39.4817 61.4109 39.5655C61.2487 39.5655 61.1675 39.6493 61.0053 39.6493C60.9242 39.6493 60.8431 39.6493 60.8431 39.6493C60.6808 39.6493 60.5997 39.5655 60.4374 39.4817C60.2752 39.314 60.1129 39.0626 60.1129 38.8111C60.0318 38.6434 60.0318 38.4758 60.0318 38.392C60.0318 37.6375 60.0318 36.7993 60.0318 36.0449C60.0318 35.8772 60.0318 35.7096 60.1129 35.5419C60.1941 35.2066 60.2752 34.8713 60.4374 34.536C60.5186 34.3684 60.6808 34.2007 60.8431 34.0331C60.9242 33.9492 61.0053 33.8654 61.0053 33.8654C61.1675 33.7816 61.2487 33.6978 61.4109 33.6978C61.5732 33.6139 61.8165 33.6139 61.9788 33.5301C62.5467 33.3625 63.1956 33.1948 63.7635 33.111C64.4125 32.9433 64.9804 32.8595 65.5482 32.6919C66.1972 32.5242 66.7651 32.4404 67.333 32.3566C67.982 32.1889 68.5498 32.1051 69.1177 32.0213C70.4968 31.8536 71.8759 31.686 73.1739 31.6021C74.1474 31.5183 75.1209 31.5183 76.0133 31.5183C76.2566 31.5183 76.4189 31.5183 76.6622 31.5183C77.3112 31.5183 77.9602 31.5183 78.6092 31.6021C80.1506 31.686 81.6919 31.8536 83.2333 32.1051C83.8012 32.1889 84.369 32.2727 85.018 32.4404C85.7481 32.608 86.4783 32.7757 87.2084 32.8595C87.7762 33.0272 88.4252 33.111 88.9931 33.2786C89.1553 33.3625 89.3987 33.3625 89.561 33.4463C89.8043 33.5301 89.9666 33.5301 90.21 33.6139C90.3722 33.6978 90.5345 33.6978 90.6156 33.7816C91.0212 33.8654 91.3457 34.2845 91.5891 34.7037C91.8324 35.1228 91.9947 35.6257 91.9947 36.1287C91.9947 36.2963 91.9947 36.7155 91.9947 37.1346ZM56.7057 26.9917C56.4624 26.7403 56.0567 26.7403 55.8134 27.0756C55.4889 27.327 55.4077 27.83 55.6511 27.9976C55.8945 28.3329 56.3812 28.4168 56.6246 28.0815C56.6246 28.0815 56.7057 28.0815 56.7057 27.9976C56.9491 27.7462 57.0302 27.327 56.7868 27.0756C56.7868 27.0756 56.7868 27.0756 56.7057 26.9917ZM54.6776 24.9799C54.5154 24.9799 54.3531 25.0638 54.272 25.1476C53.9475 25.4829 53.8664 25.902 54.1909 26.1535C54.3531 26.3211 54.5965 26.4888 54.7587 26.405C54.921 26.405 55.0832 26.3211 55.1644 26.2373C55.4889 25.9858 55.57 25.4829 55.3266 25.2314C55.0832 25.0638 54.921 24.9799 54.6776 24.9799ZM58.2471 28.9197C58.0037 28.6682 57.5981 28.6682 57.3547 28.9197C57.1113 29.0874 57.0302 29.5903 57.2736 29.8418C57.517 30.1771 57.9226 30.1771 58.166 29.9256C58.166 29.9256 58.166 29.9256 58.2471 29.9256C58.4905 29.6741 58.4905 29.255 58.2471 28.9197C58.2471 29.0035 58.2471 28.9197 58.2471 28.9197ZM59.7884 30.8477C59.7073 30.7639 59.5451 30.7639 59.3828 30.68C59.2206 30.68 59.0583 30.68 58.8961 30.8477C58.6527 31.0153 58.6527 31.4345 58.8149 31.6021C58.9772 31.7698 59.1394 31.8536 59.3828 31.7698C59.4639 31.7698 59.5451 31.686 59.6262 31.6021C59.7073 31.5183 59.7884 31.4345 59.7884 31.4345C59.8696 31.2668 59.8696 31.0992 59.7884 31.0153C59.7884 30.9315 59.7884 30.9315 59.7884 30.8477ZM53.1363 23.1358C52.974 23.1358 52.8118 23.2196 52.7306 23.3034C52.4061 23.6387 52.325 24.0579 52.5684 24.3093C52.7306 24.477 52.8929 24.5608 53.1363 24.5608C53.2985 24.5608 53.4608 24.477 53.5419 24.3093C53.8664 24.0579 53.9475 23.6387 53.7041 23.3034C53.5419 23.2196 53.3796 23.1358 53.1363 23.1358ZM51.5949 21.2916C51.4327 21.2916 51.2704 21.3754 51.1893 21.4593C50.8648 21.7946 50.7837 22.2137 51.027 22.549C51.1893 22.7166 51.4327 22.8005 51.5949 22.7166C51.7572 22.7166 51.9194 22.6328 52.0005 22.549C52.325 22.2975 52.4062 21.8784 52.1628 21.5431C52.0005 21.3754 51.8383 21.2916 51.5949 21.2916ZM91.5891 21.9622C91.1023 21.7946 90.5345 22.046 90.3722 22.4652C90.21 22.8843 90.4533 23.3872 90.9401 23.5549C91.5079 23.7226 92.0758 23.4711 92.2381 23.0519V22.9681C92.2381 22.8843 92.2381 22.7166 92.2381 22.6328C92.1569 22.2975 91.9136 22.046 91.5891 21.9622ZM93.2927 17.9386C93.4549 17.9386 93.6172 18.0224 93.6983 18.0224C94.1039 18.0224 94.4284 17.771 94.5907 17.4357C94.7529 17.0165 94.5095 16.5136 94.0228 16.3459C93.9417 16.3459 93.8605 16.3459 93.7794 16.2621C93.4549 16.2621 93.1304 16.4298 92.8871 16.6812C92.8059 16.7651 92.8059 16.7651 92.8059 16.8489C92.6437 17.1842 92.7248 17.4357 92.8871 17.6871C92.8871 17.771 93.0493 17.8548 93.2927 17.9386ZM99.8637 23.1358C99.6204 23.1358 99.4581 23.2196 99.2959 23.3872C99.0525 23.7225 99.1336 24.1417 99.377 24.3932C99.5392 24.5608 99.7015 24.5608 99.8637 24.6446C100.107 24.6446 100.269 24.5608 100.432 24.3932C100.675 24.1417 100.594 23.7225 100.269 23.3872C100.188 23.2196 100.026 23.1358 99.8637 23.1358ZM96.781 26.8241C96.6188 26.8241 96.4565 26.9079 96.2943 26.9917L96.2131 27.0756C95.9698 27.327 96.0509 27.7462 96.2943 27.9976C96.4565 28.1653 96.6188 28.1653 96.6999 28.1653C96.9433 28.1653 97.1055 28.0815 97.2678 27.9138C97.5111 27.6623 97.43 27.2432 97.1866 26.9917C97.1055 26.9917 96.9433 26.9079 96.781 26.8241ZM89.4799 27.9138C89.3987 27.83 89.3176 27.7462 89.2365 27.7462C89.1553 27.7462 89.0742 27.6623 88.912 27.6623C88.5875 27.6623 88.263 27.83 88.1819 28.0815C88.0196 28.4168 88.263 28.8359 88.5875 29.0035C88.6686 29.0035 88.7497 29.0874 88.8309 29.0874C89.0742 29.0874 89.2365 29.0035 89.3987 28.8359C89.4798 28.7521 89.561 28.6682 89.561 28.5844C89.7232 28.3329 89.6421 28.0815 89.4799 27.9138ZM94.5095 15.0885C94.7529 15.1724 95.0774 15.1724 95.2397 15.0047C95.483 14.9209 95.6453 14.7532 95.7264 14.5856C95.8886 14.1665 95.6453 13.7473 95.2397 13.4959H95.1585C94.6718 13.3282 94.1039 13.5797 93.8605 13.9988C93.6983 14.5018 93.9417 15.0047 94.5095 15.0885ZM92.8059 19.1122C92.5626 19.0283 92.4003 19.0283 92.2381 19.0283C91.9136 19.1122 91.6702 19.2798 91.5079 19.6151C91.3457 20.0342 91.5891 20.5372 92.0758 20.7048C92.1569 20.7048 92.1569 20.7048 92.2381 20.7887C92.4003 20.7887 92.6437 20.7887 92.8059 20.7048C93.0493 20.621 93.2927 20.4534 93.3738 20.2019C93.536 19.7828 93.2927 19.2798 92.8059 19.1122ZM94.0228 30.8477C93.9417 30.7639 93.7794 30.68 93.6172 30.68C93.4549 30.68 93.2927 30.7639 93.2116 30.8477C93.0493 31.0992 93.0493 31.4345 93.2927 31.6021C93.3738 31.686 93.536 31.7698 93.6172 31.7698C93.7794 31.7698 93.9417 31.686 94.0228 31.6021C94.3473 31.4345 94.2662 31.0153 94.0228 30.8477ZM95.6453 29.0035C95.5642 28.8359 95.4019 28.8359 95.2397 28.8359C95.0774 28.8359 94.834 28.9197 94.7529 29.0874C94.5095 29.3388 94.5907 29.758 94.834 30.0094C94.9963 30.0933 95.0774 30.1771 95.2397 30.1771C95.4019 30.1771 95.6453 30.0933 95.7264 29.9256C95.9698 29.6741 95.8886 29.1712 95.6453 29.0035ZM98.3224 24.9799C98.079 24.9799 97.9167 25.0638 97.7545 25.2314C97.5111 25.4829 97.5923 25.9858 97.8356 26.2373C97.9979 26.405 98.1601 26.405 98.2412 26.405C98.4846 26.405 98.6469 26.3211 98.8091 26.1535C99.0525 25.902 98.9714 25.4829 98.728 25.1476C98.6469 25.0638 98.4846 25.0638 98.3224 24.9799ZM88.912 8.21488C88.8308 7.79575 88.4252 7.54427 87.9385 7.46045C87.614 7.46045 87.3706 7.46045 87.1273 7.6281C86.8027 7.79575 86.5594 8.04723 86.4783 8.38253C86.316 8.88548 86.6405 9.3046 87.1273 9.47226C87.2084 9.47226 87.2895 9.55608 87.4517 9.55608C88.1007 9.6399 88.8308 9.22078 88.912 8.634C88.912 8.55018 88.912 8.38253 88.912 8.21488ZM90.3722 24.8123C90.2911 24.8123 90.21 24.7285 90.0477 24.7285C89.8043 24.7285 89.561 24.8123 89.3987 24.9799C89.3176 25.0638 89.2365 25.1476 89.2365 25.3152C89.0742 25.5667 89.2365 25.902 89.3987 26.0697C89.4798 26.1535 89.561 26.2373 89.7232 26.2373C89.8043 26.2373 89.8855 26.2373 90.0477 26.2373C90.3722 26.2373 90.6967 26.0697 90.859 25.7344C91.1023 25.3991 90.859 24.9799 90.3722 24.8123ZM101.405 21.2916C101.162 21.2916 100.999 21.3754 100.837 21.4593C100.594 21.7946 100.675 22.2137 100.918 22.4652C101.081 22.6328 101.243 22.6328 101.405 22.6328C101.567 22.6328 101.811 22.549 101.973 22.4652C102.216 22.1299 102.135 21.7107 101.892 21.3754C101.73 21.3754 101.567 21.2916 101.405 21.2916ZM76.5811 6.11924C75.6888 6.11924 75.0398 6.70602 75.0398 7.37662C75.0398 8.13105 75.7699 8.634 76.5811 8.634C77.3924 8.634 78.1225 8.04723 78.1225 7.37662C78.1225 6.78985 77.3924 6.11924 76.5811 6.11924ZM103.19 21.7107C103.19 21.4593 103.109 21.2078 102.946 21.0401L102.865 20.9563L102.216 20.4534L102.135 20.3695C101.973 20.2019 101.73 20.2019 101.486 20.2019C101.243 20.2019 100.999 20.2857 100.837 20.5372L100.756 20.621L96.3754 25.902L96.2943 22.4652L93.0493 23.0519L96.8621 14.0826C96.9433 13.7473 96.9433 13.412 96.8621 13.1606C96.6999 12.9091 96.5376 12.6576 96.2131 12.5738L95.1585 12.2385C95.0774 12.2385 94.9963 12.2385 94.9152 12.1547C94.834 12.1547 94.7529 12.1547 94.6718 12.1547C94.2662 12.2385 93.7794 12.49 93.6172 12.9929L90.4533 20.4534L89.8855 17.1004L87.4517 18.6092L90.0477 7.71192C90.0477 7.6281 90.0477 7.6281 90.0477 7.54427C90.1288 7.20897 89.9666 6.87367 89.8043 6.6222C89.6421 6.37072 89.3987 6.20307 89.0742 6.11924C88.9931 6.11924 88.9931 6.11924 88.912 6.11924L87.5329 5.95159C87.4517 5.95159 87.3706 5.95159 87.2084 5.95159C87.1273 5.95159 87.0461 5.95159 86.8839 6.03542C86.3971 6.20307 85.9915 6.6222 85.8293 7.12515L83.4767 16.5974L81.8542 12.2385L79.0148 15.4238V1.59268C79.0148 1.17355 78.8526 0.754427 78.5281 0.419126C78.2847 0.167651 77.8791 0 77.3924 0H75.9321H75.6888C75.202 0 74.7964 0.167651 74.4719 0.419126C74.1474 0.754427 73.904 1.08973 73.904 1.59268V15.1724L71.1458 12.1547L69.5233 16.6812L67.1707 7.20897C67.0085 6.70602 66.6029 6.2869 66.1161 6.11924C65.9539 6.03542 65.8727 6.03542 65.7916 6.03542C65.7105 6.03542 65.6294 6.03542 65.4671 6.03542L64.088 6.11924C64.0069 6.11924 63.9258 6.11924 63.9258 6.11924C63.6013 6.2869 63.2768 6.45455 63.1145 6.70602C62.9523 6.9575 62.8712 7.2928 62.8712 7.6281C62.8712 7.71193 62.8712 7.71192 62.8712 7.79575L65.5482 18.4416L63.0334 17.0165L62.4655 20.0342L59.4639 12.9091C59.3017 12.49 58.8961 12.1547 58.4093 12.0708C58.3282 12.0708 58.2471 12.0708 58.166 12.0708C58.0848 12.0708 58.0037 12.0708 57.9226 12.1547L56.9491 12.49H56.868C56.868 12.49 56.7868 12.49 56.7868 12.5738C56.5435 12.6576 56.3001 12.9091 56.219 13.1606C56.1379 13.412 56.0567 13.6635 56.219 13.9988C56.219 14.0826 56.219 14.0826 56.219 14.0826L59.9507 23.0519L56.7868 22.4652L56.7057 25.9858L52.2439 20.5372L52.1628 20.4534C52.0005 20.2857 51.7572 20.1181 51.5138 20.1181C51.2704 20.1181 51.027 20.2019 50.8648 20.3695C50.8648 20.3695 50.8648 20.3695 50.7837 20.4534L50.1347 20.9563C49.9724 21.124 49.8102 21.3754 49.8102 21.6269C49.8102 21.8784 49.8913 22.1299 50.0536 22.3813L58.7338 32.7757L58.8149 32.8595C58.9772 33.0272 59.2206 33.1948 59.4639 33.1948C59.7073 33.1948 59.9507 33.111 60.1129 33.0272C60.1129 33.0272 60.1129 33.0272 60.1129 32.9433L60.7619 32.4404C60.9242 32.2727 61.0864 32.0213 61.0864 31.7698C61.0864 31.5183 61.0053 31.2668 60.8431 31.0992L59.8696 29.9256C60.6808 29.5903 61.4109 29.1712 62.3033 28.8359L62.79 30.0094C62.9523 30.4286 63.3579 30.68 63.8446 30.7639C63.9258 30.7639 64.0069 30.7639 64.088 30.7639C64.1691 30.7639 64.2503 30.7639 64.3314 30.68L65.386 30.4286C65.4671 30.4286 65.4671 30.4286 65.4671 30.4286C65.7105 30.2609 65.9539 30.0933 66.035 29.8418C66.1161 29.5903 66.1161 29.255 66.035 29.0035V28.9197L65.4671 27.4947C66.1161 27.2432 66.8462 26.9917 67.5763 26.7403L67.982 28.3329C68.1442 28.8359 68.5498 29.255 69.0366 29.4227C69.1177 29.5065 69.1988 29.5065 69.3611 29.5065C69.4422 29.5065 69.5233 29.5065 69.6856 29.5065L71.0647 29.4227C71.1458 29.4227 71.2269 29.4227 71.3081 29.4227C71.6326 29.3388 71.8759 29.1712 72.0382 28.9197C72.2004 28.6682 72.2815 28.4168 72.2815 28.0815C72.2815 27.9976 72.2815 27.9138 72.2815 27.9138L71.7137 25.8182C72.4438 25.6505 73.1739 25.5667 73.904 25.4829V27.327C73.904 27.7462 74.0663 28.1653 74.3908 28.5006C74.7153 28.7521 75.1209 28.9197 75.6076 28.9197H75.851H77.3112C77.798 28.9197 78.2036 28.7521 78.5281 28.5006C78.8526 28.1653 79.0148 27.83 79.0148 27.327V25.5667C79.745 25.6505 80.4751 25.7344 81.2052 25.902L80.7184 27.9976C80.7184 28.0815 80.7184 28.1653 80.6373 28.1653C80.6373 28.5006 80.7184 28.7521 80.8807 29.0035C81.0429 29.255 81.2863 29.4227 81.6108 29.5065C81.6919 29.5065 81.7731 29.5065 81.7731 29.5065L83.1522 29.5903C83.2333 29.5903 83.3144 29.5903 83.4767 29.5903C83.6389 29.5903 83.72 29.5903 83.8012 29.5065C84.2879 29.3388 84.6935 28.9197 84.8558 28.4168L85.2614 26.8241C85.9915 27.0756 86.6405 27.327 87.3706 27.5785L86.8027 29.0035C86.7216 29.3388 86.7216 29.6741 86.8027 29.9256C86.965 30.1771 87.1273 30.4286 87.4517 30.5124L88.5064 30.7639C88.5875 30.7639 88.6686 30.8477 88.7497 30.8477C88.8309 30.8477 88.912 30.8477 88.9931 30.8477C89.3987 30.7639 89.8855 30.5124 90.0477 30.0933L90.5345 28.9197C91.3457 29.255 92.1569 29.6741 92.9682 30.0094L91.9947 31.183L91.9136 31.2668C91.7513 31.4345 91.7513 31.6859 91.7513 31.9374C91.7513 32.1889 91.8324 32.3566 91.9947 32.608C92.0758 32.608 92.0758 32.6919 92.0758 32.6919L92.7248 33.1948L92.8059 33.2786C92.9682 33.4463 93.2115 33.5301 93.4549 33.4463C93.6983 33.3625 93.8605 33.2786 94.1039 33.111L94.185 33.0272L102.865 22.6328L102.946 22.549C103.109 22.1299 103.19 21.8784 103.19 21.7107ZM60.5997 31.183L60.6808 31.2668C60.7619 31.3506 60.7619 31.4345 60.8431 31.5183C60.9242 31.6021 60.9242 31.7698 60.8431 31.8536C60.8431 31.9374 60.7619 32.0213 60.6808 32.1051L59.9507 32.6919C59.9507 32.7757 59.8696 32.7757 59.8696 32.7757C59.7073 32.8595 59.5451 32.8595 59.4639 32.8595C59.3017 32.7757 59.2206 32.6919 59.1394 32.608L58.3282 31.6021L56.868 29.8418L54.8399 27.4109L53.2985 25.5667L51.7572 23.7225L50.2969 22.1299C50.0536 21.8784 50.1347 21.4593 50.378 21.2078L51.027 20.7048C51.1893 20.5372 51.4327 20.5372 51.5949 20.5372C51.7572 20.5372 51.8383 20.621 51.9194 20.7887L53.1363 22.2137L54.6776 24.0579L56.7057 26.4888L58.166 28.2491L59.3828 29.6741L59.7884 30.1771L60.5997 31.183ZM65.7916 29.0035C65.9539 29.4227 65.7916 29.8418 65.3049 30.0094L64.3314 30.2609C64.088 30.3447 63.7635 30.3447 63.5201 30.1771C63.3579 30.0933 63.2768 29.9256 63.1956 29.758L61.7354 26.2373L60.7619 23.974L60.5997 23.4711L59.8696 21.7107L59.4639 20.7048L58.2471 17.8548L56.7057 14.2503L56.5435 13.8312C56.3812 13.4959 56.4624 13.2444 56.7057 12.9929C56.7868 12.9091 56.868 12.9091 57.0302 12.8253L58.0848 12.49C58.166 12.49 58.166 12.49 58.2471 12.49C58.6527 12.4061 59.0583 12.6576 59.1394 13.0767L59.3828 13.6635L59.7884 14.6694L60.5186 16.4298L60.6808 16.9327L61.6543 19.196L63.439 23.5549L65.2238 27.83L65.7916 29.0035ZM71.8759 27.83C71.957 28.4168 71.6326 28.9197 71.0647 28.9197L69.6856 29.0035C69.4422 29.0874 69.1988 29.0035 68.9555 28.8359C68.7121 28.6682 68.4687 28.4168 68.3876 28.1653L67.0896 23.0519L65.3049 15.7591L63.5201 8.55018L63.2768 7.6281C63.1956 7.2928 63.2768 6.9575 63.5201 6.78985C63.6824 6.6222 63.8446 6.53837 64.088 6.53837L65.3049 6.37072H65.4671C66.035 6.28689 66.684 6.78985 66.7651 7.2928L67.0896 8.71783L68.9555 15.9268L71.8759 27.83ZM78.6903 27.0756C78.6903 27.327 78.6092 27.5785 78.447 27.7462C78.2036 28.0815 77.798 28.2491 77.3112 28.2491H76.5H75.6076C74.8775 28.2491 74.2285 27.7462 74.2285 27.0756V1.59268C74.2285 0.922078 74.8775 0.419126 75.6076 0.419126H76.5H77.3112C77.798 0.419126 78.2036 0.586777 78.447 0.922078C78.6092 1.08973 78.6903 1.3412 78.6903 1.59268V27.0756ZM84.9369 26.7403L84.6124 28.1653C84.4502 28.6682 83.9634 29.0874 83.3144 29.0035H83.1522L81.9353 28.9197C81.3674 28.8359 81.0429 28.3329 81.1241 27.83L83.1522 19.6989L84.9369 12.5738L86.2349 7.2928C86.316 6.87367 86.7216 6.53837 87.1273 6.37072C87.2895 6.37072 87.3706 6.37072 87.5329 6.37072L88.912 6.53837C89.1553 6.53837 89.3176 6.70602 89.4799 6.78985C89.7232 6.9575 89.8043 7.2928 89.7232 7.6281L89.4799 8.55018L88.912 10.8135L87.1273 17.9386L84.9369 26.7403ZM92.2381 23.974L90.1288 29.0874L89.8043 29.758C89.7232 29.9256 89.6421 30.0933 89.4799 30.1771C89.3176 30.2609 89.0742 30.3447 88.912 30.3447C88.8308 30.3447 88.7497 30.3447 88.7497 30.2609L87.6951 30.0094C87.3706 29.8418 87.2084 29.5903 87.1273 29.3388V29.255C87.1273 29.1712 87.1273 29.0874 87.2084 29.0035L88.912 24.8961L89.4799 23.5549L90.1288 22.046L92.2381 16.9327L92.8059 15.5077L93.6983 13.412L93.8605 12.9929C94.0228 12.5738 94.5095 12.3223 94.9963 12.49L95.2397 12.5738L96.0509 12.8253C96.132 12.9091 96.2132 12.9091 96.3754 12.9929C96.6188 13.2444 96.6188 13.4959 96.5376 13.8312L96.3754 14.2503L95.3208 16.7651L93.7794 20.4534L92.8871 22.549L92.2381 23.974ZM102.622 22.1299L101.405 23.6387L99.8637 25.4829L98.3224 27.327L96.781 29.1712L96.2943 29.758L95.2397 31.0153L93.9417 32.5242C93.8605 32.608 93.7794 32.6919 93.6983 32.6919C93.536 32.7757 93.2927 32.7757 93.0493 32.608L92.8059 32.4404L92.4003 32.1051C92.3192 32.0213 92.2381 31.9374 92.2381 31.7698C92.2381 31.686 92.2381 31.6021 92.2381 31.4345C92.2381 31.3506 92.3192 31.2668 92.4003 31.183L92.8059 30.68L93.6983 29.5903L95.2397 27.7462L96.2943 26.4888L96.781 25.902L98.3224 24.0579L99.8637 22.2137L101.081 20.7048C101.162 20.621 101.243 20.5372 101.405 20.4534C101.567 20.3695 101.811 20.4534 101.973 20.621L102.622 21.124C102.865 21.4593 102.865 21.8784 102.622 22.1299ZM76.5811 1.59268C75.6888 1.59268 75.0398 2.17946 75.0398 2.93388C75.0398 3.60449 75.7699 4.19126 76.5811 4.19126C77.3924 4.19126 78.1225 3.60449 78.1225 2.93388C78.1225 2.17946 77.3924 1.59268 76.5811 1.59268ZM76.5811 15.1724C75.6888 15.1724 75.0398 15.7592 75.0398 16.4298C75.0398 17.1842 75.7699 17.771 76.5811 17.771C77.3924 17.771 78.1225 17.1842 78.1225 16.4298C78.1225 15.7592 77.3924 15.1724 76.5811 15.1724ZM76.5811 10.6458C75.6888 10.6458 75.0398 11.2326 75.0398 11.987C75.0398 12.6576 75.7699 13.2444 76.5811 13.2444C77.3924 13.2444 78.1225 12.6576 78.1225 11.987C78.1225 11.2326 77.3924 10.6458 76.5811 10.6458ZM85.1803 18.6092C85.0991 18.6092 85.018 18.6092 84.9369 18.6092C84.369 18.6092 83.8823 19.0283 83.72 19.5313C83.5578 20.1181 84.0445 20.621 84.6935 20.7048C84.7747 20.7048 84.8558 20.7048 84.9369 20.7048C85.5048 20.621 86.0726 20.2857 86.1538 19.7828C86.316 19.196 85.8293 18.693 85.1803 18.6092ZM87.1273 11.1488H87.0461C86.3971 11.0649 85.667 11.5679 85.5859 12.0708C85.5048 12.6576 85.9104 13.1606 86.5594 13.2444C86.8027 13.2444 86.965 13.2444 87.2084 13.1606C87.614 12.9929 88.0196 12.7414 88.1007 12.3223C88.1007 11.7355 87.7762 11.2326 87.1273 11.1488ZM86.0726 14.7532C85.667 14.6694 85.1803 14.8371 84.8558 15.1724C84.7747 15.2562 84.6124 15.5077 84.6124 15.6753C84.5313 16.0106 84.6124 16.3459 84.8558 16.5974C85.018 16.7651 85.2614 16.8489 85.5048 16.8489C86.1538 16.9327 86.8839 16.5136 86.965 15.9268C86.965 15.843 86.965 15.7591 86.965 15.7591V15.6753C87.1272 15.2562 86.7216 14.8371 86.0726 14.7532ZM84.9369 22.3813C84.7747 22.2137 84.5313 22.1299 84.2879 22.1299C83.8823 22.046 83.3955 22.2975 83.1522 22.549C83.071 22.6328 82.9899 22.8005 82.9899 22.9681C82.9088 23.2196 82.9899 23.4711 83.1522 23.7225C83.3144 23.8902 83.5578 23.974 83.8012 24.0579C84.2068 24.0579 84.6935 23.974 84.9369 23.6387C85.0991 23.5549 85.1803 23.3873 85.1803 23.2196C85.2614 22.8843 85.0991 22.549 84.9369 22.3813ZM83.3144 25.8182C83.2333 25.8182 83.2333 25.8182 83.1522 25.8182C82.6654 25.8182 82.2598 26.1535 82.1787 26.5726C82.0976 26.9917 82.4221 27.4109 82.9899 27.4947C83.071 27.4947 83.071 27.4947 83.1522 27.4947C83.6389 27.4109 84.0445 27.1594 84.1257 26.7403C84.2879 26.3211 83.8823 25.902 83.3144 25.8182Z" fill="white"/>
</g>
<defs>
<clipPath id="clip0_927_486">
<rect width="153" height="71" fill="white"/>
</clipPath>
</defs>
</svg>
