<svg width="396" height="65" viewBox="0 0 396 65" fill="none" xmlns="http://www.w3.org/2000/svg">
<path d="M46.0169 36.0162L46.8689 36.8605V35.661V14.4524L60.1142 1.20711V56.5768H46.576L36.0146 46.0154L35.661 45.6618L35.3075 46.0154L24.7461 56.5768H17.9898L11.1123 49.6992V17.7827V17.5756L10.9658 17.4292L1.20711 7.67045H24.4532V35.7566V36.9637L25.3067 36.1102L35.6626 25.7543L46.0169 36.0162Z" fill="black" stroke="white"/>
<path d="M68.2847 17.8783V17.6712L68.1382 17.5247L58.2839 7.67041H117.191V49.7948L110.313 56.6724H75.1622L68.2847 49.7948V17.8783ZM103.446 43.3315H103.946V42.8315V21.4157V20.9157H103.446H82.0299H81.5299V21.4157V42.8315V43.3315H82.0299H103.446Z" fill="black" stroke="white"/>
<path d="M160.315 56.5767H125.361V17.8783V17.6712L125.215 17.5247L115.361 7.67041H138.607V42.8315V43.3315H139.107H173.561L160.315 56.5767Z" fill="black" stroke="white"/>
<path d="M178.799 56.7679L178.754 56.7232L165.363 43.3315H210.524H211.024V42.8315V39.294V38.794H210.524H189.316L175.363 24.8416V17.8783V17.6712L175.217 17.5247L165.363 7.67041H217.488L224.365 14.548V21.0113H189.204H188.704V21.5113V25.0487V25.5487H189.204H217.583L224.461 32.4263V49.8904L217.583 56.7679H178.799Z" fill="black" stroke="white"/>
<path d="M232.345 17.8783V17.6712L232.198 17.5247L222.344 7.67041H245.59V42.8315V43.3315H246.09H267.506H268.006V42.8315V17.8783V17.6712L267.859 17.5247L258.005 7.67041H281.251V49.7948L274.373 56.6724H239.222L232.345 49.7948V17.8783Z" fill="black" stroke="white"/>
<path d="M324.325 28.9405L325.178 29.7895V28.5861V7.67041H338.423V63.0401L303.616 28.2326L302.762 27.379V28.5861V56.6724H296.299L289.421 49.7948V17.8783V17.6712L289.275 17.5247L279.42 7.67041H302.96L324.325 28.9405Z" fill="black" stroke="white"/>
<path d="M346.498 18.3783H347.301L346.447 17.5247L336.593 7.67041H395.5V20.9157H360.339H359.839V21.4157V42.8315V43.3315H360.339H381.755H382.255V42.8315V39.294V38.794H381.755H374.791L367.914 31.9165V25.4531H395.5V49.6992L388.623 56.5767H353.376L346.498 49.6992V18.3783Z" fill="black" stroke="white"/>
</svg>
