<svg width="546" height="135" viewBox="0 0 546 135" fill="none" xmlns="http://www.w3.org/2000/svg">
<path d="M39.71 34.77H0.76V-9.05991e-06H123.5V34.77H84.55V133H39.71V34.77ZM234.006 80.94C234.006 81.5733 233.816 84.93 233.436 91.01H161.236C162.756 94.9367 165.289 97.9767 168.836 100.13C172.382 102.157 176.816 103.17 182.136 103.17C186.696 103.17 190.496 102.6 193.536 101.46C196.702 100.32 200.122 98.3567 203.796 95.57L226.216 118.18C216.082 129.327 200.946 134.9 180.806 134.9C168.266 134.9 157.246 132.62 147.746 128.06C138.246 123.373 130.899 116.913 125.706 108.68C120.512 100.447 117.916 91.2 117.916 80.94C117.916 70.5533 120.449 61.3067 125.516 53.2C130.709 44.9667 137.739 38.57 146.606 34.01C155.599 29.45 165.669 27.17 176.816 27.17C187.329 27.17 196.892 29.26 205.506 33.44C214.246 37.62 221.149 43.7633 226.216 51.87C231.409 59.9767 234.006 69.6667 234.006 80.94ZM177.196 56.43C172.762 56.43 169.089 57.6333 166.176 60.04C163.262 62.4467 161.362 65.8667 160.476 70.3H193.916C193.029 65.9933 191.129 62.6367 188.216 60.23C185.302 57.6967 181.629 56.43 177.196 56.43ZM291.323 27.17C309.563 27.17 323.497 31.2867 333.123 39.52C342.75 47.6267 347.563 60.1667 347.563 77.14V133H307.663V119.32C302.723 129.707 292.907 134.9 278.213 134.9C269.98 134.9 262.95 133.507 257.123 130.72C251.423 127.807 247.053 123.943 244.013 119.13C241.1 114.19 239.643 108.68 239.643 102.6C239.643 92.34 243.57 84.55 251.423 79.23C259.277 73.91 271.183 71.25 287.143 71.25H304.433C303.04 63.1433 296.517 59.09 284.863 59.09C280.177 59.09 275.427 59.85 270.613 61.37C265.8 62.7633 261.683 64.7267 258.263 67.26L244.583 38.95C250.537 35.2767 257.693 32.4267 266.053 30.4C274.54 28.2467 282.963 27.17 291.323 27.17ZM291.133 109.06C294.173 109.06 296.897 108.237 299.303 106.59C301.71 104.943 303.483 102.473 304.623 99.18V91.96H293.983C285.243 91.96 280.873 94.8733 280.873 100.7C280.873 103.107 281.76 105.133 283.533 106.78C285.433 108.3 287.967 109.06 291.133 109.06ZM503.681 27.17C516.221 27.17 526.228 31.0333 533.701 38.76C541.301 46.4867 545.101 58.14 545.101 73.72V133H502.161V81.13C502.161 69.2233 498.298 63.27 490.571 63.27C486.518 63.27 483.224 64.79 480.691 67.83C478.284 70.87 477.081 75.6833 477.081 82.27V133H434.141V81.13C434.141 69.2233 430.278 63.27 422.551 63.27C418.498 63.27 415.204 64.79 412.671 67.83C410.264 70.87 409.061 75.6833 409.061 82.27V133H366.121V29.07H406.971V38.76C414.698 31.0333 424.514 27.17 436.421 27.17C443.388 27.17 449.658 28.5 455.231 31.16C460.804 33.6933 465.364 37.62 468.911 42.94C473.091 37.8733 478.158 34.01 484.111 31.35C490.064 28.5633 496.588 27.17 503.681 27.17Z" fill="white" fill-opacity="0.04"/>
</svg>
