<svg width="158" height="26" viewBox="0 0 158 26" fill="none" xmlns="http://www.w3.org/2000/svg">
<g clip-path="url(#clip0_927_461)">
<path d="M16.1479 0.580817V1.01577C16.1479 1.19827 16.0412 1.30777 15.8632 1.30777H8.53373C8.46254 1.30777 8.42695 1.34427 8.42695 1.41727V25.4189C8.42695 25.6014 8.32016 25.7109 8.14219 25.7109H7.64684C7.46887 25.7109 7.36208 25.6014 7.36208 25.4189V1.41727C7.36208 1.34427 7.32649 1.30777 7.2553 1.30777H0.284754C0.106783 1.30777 0 1.19827 0 1.01577V0.580817C0 0.398318 0.106783 0.288818 0.284754 0.288818H15.8662C16.0412 0.29186 16.1479 0.398318 16.1479 0.580817Z" fill="white"/>
<path d="M36.2972 25.4555L30.7 13.6174C30.6645 13.5444 30.6289 13.5079 30.5577 13.5079H23.3706C23.2994 13.5079 23.2282 13.5809 23.2282 13.6539V25.346C23.2282 25.565 23.0858 25.708 22.8752 25.708H22.2019C21.9883 25.708 21.8489 25.562 21.8489 25.346V0.58095C21.8489 0.361952 21.9913 0.218994 22.2019 0.218994H30.878C34.7726 0.218994 37.3591 2.94127 37.3591 6.93799C37.3591 10.3872 35.3392 12.8935 32.1891 13.4015C32.0823 13.438 32.0467 13.511 32.0823 13.584L37.6053 25.2761C37.7121 25.5316 37.6053 25.711 37.3562 25.711H36.7184C36.5434 25.708 36.3684 25.638 36.2972 25.4555ZM23.2282 1.66986V12.127C23.2282 12.2 23.2994 12.273 23.3706 12.273H30.8424C33.9243 12.273 35.9769 10.0952 35.9769 6.93495C35.9769 3.70168 33.9243 1.52386 30.8424 1.52386H23.3706C23.2994 1.52386 23.2282 1.59686 23.2282 1.66986Z" fill="white"/>
<path d="M42.6686 17.8666V0.763447C42.6686 0.471449 42.8466 0.291992 43.1284 0.291992H44.7212C45.006 0.291992 45.181 0.474491 45.181 0.763447V17.9396C45.181 21.3889 47.554 23.7492 51.0956 23.7492C54.6372 23.7492 57.0102 21.3889 57.0102 17.9396V0.763447C57.0102 0.471449 57.1881 0.291992 57.4699 0.291992H59.0628C59.3475 0.291992 59.5225 0.474491 59.5225 0.763447V17.8666C59.5225 22.7698 56.1589 26 51.0956 26C46.0679 26 42.6686 22.7667 42.6686 17.8666Z" fill="white"/>
<path d="M64.3396 18.919V18.0461C64.3396 17.7206 64.5532 17.5016 64.8705 17.5016H67.1367C67.4571 17.5016 67.6677 17.7206 67.6677 18.0461V18.7365C67.6677 21.1334 69.827 22.9857 73.3687 22.9857C76.7323 22.9857 78.2896 21.3524 78.2896 19.1715C78.2896 16.8842 76.3764 15.8683 72.2326 14.1589C68.1956 12.562 64.654 11.1081 64.654 6.67946C64.6599 2.46982 67.81 0 72.7339 0C78.0464 0 81.4812 2.90477 81.4812 7.22695V7.77141C81.4812 8.09686 81.2676 8.31586 80.9503 8.31586H78.6485C78.3311 8.31586 78.1175 8.13336 78.1175 7.84441V7.40945C78.1175 4.97613 76.1688 3.01427 72.5945 3.01427C69.655 3.01427 67.991 4.28568 67.991 6.6095C67.991 9.04282 69.833 9.84277 74.0123 11.4761C77.9425 13.0365 81.6977 14.6364 81.6977 19.065C81.6977 23.2047 78.4765 26 73.1284 26C67.7744 26 64.3396 23.2047 64.3396 18.919Z" fill="white"/>
<path d="M102.692 0.872947V3.37926C102.692 3.74122 102.479 3.96022 102.126 3.96022H95.7872C95.6448 3.96022 95.5736 4.03322 95.5736 4.17922V25.1301C95.5736 25.492 95.36 25.711 95.0071 25.711H92.032C91.679 25.711 91.4654 25.492 91.4654 25.1301V4.17617C91.4654 4.06668 91.3942 3.95718 91.2519 3.95718H85.1593C84.8063 3.95718 84.5928 3.73818 84.5928 3.37622V0.872947C84.5928 0.510991 84.8063 0.291992 85.1593 0.291992H102.123C102.479 0.291992 102.692 0.507949 102.692 0.872947Z" fill="white"/>
<path d="M120.43 25.1999L119.44 21.8237C119.404 21.6777 119.333 21.6412 119.226 21.6412H110.55C110.443 21.6412 110.372 21.6777 110.336 21.8237L109.346 25.1999C109.239 25.5284 109.028 25.7079 108.672 25.7079H104.564C104.14 25.7079 103.926 25.4159 104.069 25.0174L111.612 0.796773C111.719 0.471317 111.929 0.288818 112.285 0.288818H117.491C117.844 0.288818 118.057 0.471317 118.164 0.796773L125.707 25.0174C125.849 25.4159 125.636 25.7079 125.212 25.7079H121.104C120.751 25.7079 120.537 25.5284 120.43 25.1999ZM111.754 17.684H118.022C118.164 17.684 118.235 17.611 118.2 17.4285L115.014 6.35386C114.943 6.17136 114.8 6.17136 114.729 6.35386L111.579 17.4285C111.544 17.611 111.615 17.684 111.754 17.684Z" fill="white"/>
<path d="M129.035 25.0205V0.979272C129.035 0.544317 129.281 0.288818 129.708 0.288818H138.666C144.474 0.288818 148.369 3.55555 148.369 8.45868V17.538C148.369 22.4411 144.474 25.7079 138.666 25.7079H129.708C129.284 25.7079 129.035 25.4554 129.035 25.0205ZM135.976 19.8618H138.916C140.508 19.8618 141.641 18.4809 141.713 16.3761V9.62363C141.713 7.51881 140.58 6.13791 138.88 6.13791H135.976C135.798 6.13791 135.691 6.24741 135.691 6.4299V19.5759C135.691 19.7554 135.798 19.8618 135.976 19.8618Z" fill="white"/>
<path fill-rule="evenodd" clip-rule="evenodd" d="M156.805 5.5663C157.789 5.13439 158.261 3.96335 157.855 2.9444C157.564 2.21136 156.873 1.7247 156.099 1.71862C155.399 1.71253 154.808 2.13228 154.657 2.84403C154.117 2.62199 153.598 2.47295 153.07 2.32086C152.765 2.23266 152.453 2.14141 152.136 2.03799C152.919 1.80074 153.491 1.31712 154.091 0.781791C153.251 0.30121 152.391 -0.115495 151.397 0.0365872C150.78 0.130878 150.264 0.456334 149.935 1.02816L149.707 0.885207L149.386 1.26845C150.398 2.46078 150.854 3.47973 151.288 4.4561C151.516 4.97014 151.741 5.47201 152.038 5.98301C151.377 6.24459 151.062 6.90767 151.175 7.61637C151.299 8.39199 151.872 9.02465 152.628 9.20715C153.672 9.45961 154.728 8.80261 154.995 7.73804C155.241 6.75254 154.639 5.51459 153.607 5.37468C153.189 5.31689 152.797 5.46897 152.477 5.73663C152.189 5.2378 151.967 4.74506 151.741 4.24014C151.421 3.52536 151.092 2.78624 150.549 1.97107C151.32 2.31174 152.127 2.57332 152.937 2.80753C153.459 2.95961 153.969 3.10561 154.494 3.32157C154.286 3.68352 154.197 4.09719 154.319 4.52302C154.61 5.54805 155.894 5.9678 156.805 5.5663Z" fill="white"/>
</g>
<defs>
<clipPath id="clip0_927_461">
<rect width="158" height="26" fill="white"/>
</clipPath>
</defs>
</svg>
