<svg width="127" height="28" viewBox="0 0 127 28" fill="none" xmlns="http://www.w3.org/2000/svg">
<g clip-path="url(#clip0_927_473)">
<path d="M95.0849 16.0156V27.5642C95.0849 27.5914 95.1124 27.5914 95.1124 27.5914H100.588C100.615 27.5914 100.615 27.5642 100.615 27.5642V15.7977C100.615 14.4086 101.385 13.2101 102.513 12.5564C102.926 12.3113 103.174 11.8482 103.174 11.3852V7.68093C103.146 7.6537 103.146 7.6537 103.146 7.6537C97.2309 7.57198 95.0849 10.8677 95.0849 16.0156ZM111.042 9.01556C109.777 8.11673 108.071 7.62646 105.76 7.6537C105.732 7.68093 105.732 7.68093 105.732 7.68093V11.3852C105.732 11.8755 105.98 12.3113 106.393 12.5564C107.521 13.2101 108.291 14.4086 108.291 15.7977V27.5642C108.291 27.5914 108.319 27.5914 108.319 27.5914H108.346H113.794H113.821C113.849 27.5914 113.849 27.5642 113.849 27.5642V15.7977C113.849 14.4086 114.619 13.2101 115.747 12.5564C116.16 12.3113 116.407 11.8482 116.407 11.3852V7.68093C116.38 7.6537 116.38 7.6537 116.38 7.6537C114.014 7.59922 112.281 8.11673 111.042 9.01556ZM118.939 7.6537C118.911 7.68093 118.911 7.68093 118.911 7.68093V11.3852C118.911 11.8755 119.159 12.3113 119.571 12.5564C120.7 13.2101 121.47 14.4086 121.47 15.7977V27.5642C121.47 27.5914 121.497 27.5914 121.497 27.5914H126.972C127 27.5914 127 27.5642 127 27.5642V16.0156C127 10.8677 124.854 7.57198 118.939 7.6537ZM77.1189 23.5875C75.8533 23.5875 74.9454 22.8249 74.9454 21.1634V12.3658C74.9454 12.3385 74.9729 12.3385 74.9729 12.3385H80.2829C80.3104 12.3385 80.3104 12.3113 80.3104 12.3113V7.89883C80.3104 7.87159 80.2829 7.87159 80.2829 7.87159H74.9729C74.9454 7.87159 74.9454 7.84436 74.9454 7.84436V2.28794C74.9454 2.2607 74.9179 2.2607 74.8904 2.2607L69.6629 4.63035L69.6354 4.65759V7.84436C69.6354 7.87159 69.6079 7.87159 69.6079 7.87159H66.3614C66.3338 7.87159 66.3338 7.89883 66.3338 7.89883V12.284C66.3338 12.3113 66.3614 12.3113 66.3614 12.3113H69.6079C69.6354 12.3113 69.6354 12.3385 69.6354 12.3385V21.4086C69.6354 26.0389 72.6893 27.9728 75.8533 27.9728C76.8163 27.9728 77.6142 27.8911 78.2195 27.7549C78.8247 27.6187 79.5401 27.3735 80.4205 26.965L80.448 26.9377L80.8332 22.4163H80.2279C79.1549 23.2062 78.1094 23.5875 77.1189 23.5875ZM28.8061 7.84436H23.4411C23.4136 7.84436 23.4136 7.87159 23.4136 7.87159V27.3735C23.4136 27.4008 23.4411 27.4008 23.4411 27.4008H28.8061C28.8336 27.4008 28.8336 27.3735 28.8336 27.3735V7.87159C28.8336 7.84436 28.8061 7.84436 28.8061 7.84436ZM26.1098 0C24.4315 0 23.0559 1.28016 23.0559 2.85992C23.0559 4.5214 24.5416 5.85603 26.3024 5.74708C27.5405 5.66537 28.8061 4.5214 29.0262 3.32296C29.3289 1.52529 27.8982 0 26.1098 0ZM63.3349 7.84436H57.9699C57.9424 7.84436 57.9424 7.87159 57.9424 7.87159V27.3735C57.9424 27.4008 57.9699 27.4008 57.9699 27.4008H63.3349C63.3624 27.4008 63.3624 27.3735 63.3624 27.3735V7.87159C63.3624 7.84436 63.3624 7.84436 63.3349 7.84436ZM60.6662 0C58.9879 0 57.6122 1.28016 57.6122 2.85992C57.6122 4.5214 59.0979 5.85603 60.8587 5.74708C62.0968 5.66537 63.3624 4.5214 63.5825 3.32296C63.8852 1.52529 62.427 0 60.6662 0ZM87.5188 0C85.8406 0 84.4649 1.28016 84.4649 2.85992C84.4649 4.5214 85.9506 5.85603 87.7114 5.74708C88.9495 5.66537 90.2151 4.5214 90.4352 3.32296C90.7379 1.52529 89.3072 0 87.5188 0ZM90.2151 7.84436H84.8501C84.8226 7.84436 84.8226 7.87159 84.8226 7.87159V27.3735C84.8226 27.4008 84.8501 27.4008 84.8501 27.4008H90.2151C90.2426 27.4008 90.2426 27.3735 90.2426 27.3735V7.87159C90.2426 7.84436 90.2426 7.84436 90.2151 7.84436ZM34.0061 15.8249V27.3735C34.0061 27.4008 34.0336 27.4008 34.0336 27.4008H39.5087C39.5362 27.4008 39.5362 27.3735 39.5362 27.3735V15.607C39.5362 14.2179 40.3065 13.0195 41.4346 12.3658C41.8473 12.1206 42.0949 11.6576 42.0949 11.1946V7.49027C42.0674 7.46303 42.0674 7.46303 42.0674 7.46303C36.1521 7.38132 34.0061 10.677 34.0061 15.8249ZM44.6811 7.4358C44.6536 7.46303 44.6536 7.46303 44.6536 7.46303V11.1673C44.6536 11.6576 44.9012 12.0934 45.3139 12.3385C46.4419 12.9922 47.2123 14.1907 47.2123 15.5798V27.3463C47.2123 27.3735 47.2398 27.3735 47.2398 27.3735H52.7149C52.7424 27.3735 52.7424 27.3463 52.7424 27.3463V15.8249C52.7149 10.677 50.5689 7.38132 44.6811 7.4358ZM20.6072 7.84436H15.2147C15.2147 7.84436 15.1872 7.84436 15.1872 7.87159L10.3724 18.0311C10.3724 18.0584 10.3174 18.0584 10.3174 18.0311L5.47509 7.84436L5.44757 7.81712H0.027513C0 7.84436 0 7.87159 0 7.87159L9.18934 26.3385C9.38193 26.7471 9.82214 27.0467 10.3174 27.0467C10.8126 27.0467 11.2528 26.7471 11.4454 26.3385L20.6347 7.87159C20.6623 7.87159 20.6347 7.84436 20.6072 7.84436Z" fill="white"/>
</g>
<defs>
<clipPath id="clip0_927_473">
<rect width="127" height="28" fill="white"/>
</clipPath>
</defs>
</svg>
